<?xml version="1.0" encoding="UTF-8" standalone="no"?>
<!DOCTYPE svg PUBLIC "-//W3C//DTD SVG 1.1//EN" "http://www.w3.org/Graphics/SVG/1.1/DTD/svg11.dtd">
<svg width="100%" height="100%" viewBox="0 0 369 133" version="1.1" xmlns="http://www.w3.org/2000/svg" xmlns:xlink="http://www.w3.org/1999/xlink" xml:space="preserve" xmlns:serif="http://www.serif.com/" style="fill-rule:evenodd;clip-rule:evenodd;stroke-linejoin:round;stroke-miterlimit:2;">
    <g transform="matrix(1,0,0,1,-22.1923,-375.117)">
        <g>
            <path d="M104.888,507.962L98.565,507.962L98.565,444.305C98.565,440.587 97.664,437.664 95.864,435.54C94.064,433.413 91.599,432.353 88.471,432.353C85.225,432.353 81.889,433.563 78.468,435.983L78.468,507.962L23.751,507.962L23.751,401.365L78.468,401.365L78.468,414.734C87.322,405.232 98.269,400.478 111.314,400.478C126.836,400.478 138.319,406.62 145.756,418.895C151.833,412.52 157.927,407.858 164.037,404.907C170.146,401.956 177.037,400.478 184.711,400.478L223.385,400.478L223.385,414.734C232.242,405.232 243.19,400.478 256.235,400.478C271.758,400.478 283.238,406.62 290.675,418.895C296.753,412.52 302.849,407.858 308.96,404.907C315.069,401.956 321.958,400.478 329.631,400.478C341.201,400.478 350.318,404.02 356.989,411.103C363.658,418.186 366.995,428.163 366.995,441.029L366.995,507.962L315.289,507.962L315.289,444.305C315.289,440.529 314.358,437.591 312.499,435.496C310.639,433.401 308.204,432.353 305.195,432.353C301.83,432.353 298.495,433.503 295.19,435.805L295.19,507.962L243.486,507.962L243.486,444.305C243.486,440.587 242.584,437.664 240.784,435.54C238.982,433.413 236.52,432.353 233.394,432.353C230.144,432.353 226.809,433.563 223.385,435.983L223.385,507.962L170.369,507.962L170.369,444.305C170.369,440.529 169.439,437.591 167.58,435.496C165.72,433.401 163.284,432.353 160.274,432.353C156.91,432.353 153.575,433.503 150.27,435.805L150.27,493.286L146.728,489.527C146.728,489.527 137.996,482.561 130.894,477.045C131.038,476.222 131.135,475.589 131.172,475.208C131.977,467.028 130.278,460.453 126.538,454.307C124.694,451.275 124.363,447.282 124.283,444.839L124.283,444.839C124.283,444.839 124.555,445.699 125.27,446.683C125.986,447.666 127.572,446.609 127.515,446.069C127.459,445.529 128.424,445.728 130.278,446.683C133.128,448.151 140.302,456.208 141.107,457.192C141.912,458.175 147.3,463.993 147.3,463.993C147.3,463.993 149.257,465.393 147.268,461.104C146.685,459.847 136.716,444.894 136.269,443.464C135.822,442.033 135.107,441.318 135.285,440.513C135.464,439.708 134.928,438.009 134.391,437.115C133.855,436.22 131.031,433.18 129.473,433.001C127.914,432.822 127.327,432.77 126.88,432.484C126.433,432.196 125.748,433.359 124.928,433.359C124.108,433.359 119.66,433.971 118.385,436.757C115.766,442.48 116.954,444.537 121.962,457.592C124.202,463.434 124.925,467.837 124.116,471.877C123.949,471.754 123.789,471.638 123.638,471.529C118.021,467.471 114.961,458.704 114.961,458.704C114.961,458.704 110.482,447.599 113.142,439.202C115.8,430.805 117.62,422.689 117.62,421.525C117.62,420.362 116.92,416.531 115.766,415.103C114.613,413.675 111.462,409.533 107.544,409.603C103.625,409.672 100.617,413.312 100.617,413.312C100.617,413.312 99.987,414.432 99.08,415.418C98.172,416.404 87.626,421.965 83.249,423.7C77.7,425.901 78.705,427.195 78.705,427.195C78.705,427.195 80.381,427.77 82.863,427.02C85.346,426.271 99.706,421.989 100.617,421.622C101.528,421.255 103.432,421.079 103.432,421.079L105.4,422.408C105.4,422.408 105.769,424.781 107.264,425.404C108.35,425.857 109.106,424.863 109.106,424.863C109.106,424.863 110.262,424.903 109.699,428.174C108.743,433.732 105.149,438.348 104.712,449.273C104.546,453.423 104.866,461.174 108.618,471.649C111.872,480.737 114.197,488.678 114.197,488.678L104.888,507.962ZM375.795,494.56C378.343,494.56 380.085,496.926 380.085,500.306C380.085,501.58 379.851,502.906 379.461,503.894L380.397,503.894C382.399,503.894 383.595,502.698 383.595,500.566C383.595,499.136 383.049,497.732 382.035,496.249L383.855,495.366C385.025,497.108 385.623,498.902 385.623,500.826C385.623,504.544 383.621,506.754 380.085,506.754L375.171,506.754C374.521,506.754 374.261,506.962 374.235,507.56L371.791,507.56C371.687,507.014 371.661,506.52 371.661,506.157C371.739,505.064 372.285,504.493 373.143,504.362L374.001,504.285C372.415,503.062 371.531,501.19 371.531,499.161C371.531,496.536 373.377,494.56 375.795,494.56ZM336.539,505.202C333.377,505.202 331.06,502.451 331.06,498.64C331.06,494.828 333.377,492.056 336.539,492.056C339.68,492.056 342.019,494.828 342.019,498.64C342.019,502.451 339.68,505.202 336.539,505.202ZM363.141,503.253L363.141,504.986L355.366,504.986L355.366,503.253L358.441,503.253L358.441,494.807C357.943,495.478 356.037,496.496 354.911,496.496L354.911,494.676C356.167,494.676 358.268,492.944 358.441,492.619L360.391,492.619L360.391,503.253L363.141,503.253ZM343.633,504.986C343.633,502.668 344.24,500.979 347.164,499.332C348.874,498.379 350.975,497.643 350.975,496.106C350.975,495.109 350.066,494.091 348.376,494.091C346.622,494.091 345.583,495.196 345.041,495.846L343.807,494.46C344.283,493.961 346.038,492.402 348.723,492.402C351.387,492.402 353.033,493.961 353.033,495.889C353.033,498.12 350.824,499.224 349.546,499.852C348.269,500.481 346.167,501.628 345.885,503.253L353.271,503.253L353.271,504.986L343.633,504.986ZM319.622,504.986C319.622,502.668 320.228,500.979 323.152,499.332C324.863,498.379 326.964,497.643 326.964,496.106C326.964,495.109 326.054,494.091 324.365,494.091C322.611,494.091 321.571,495.196 321.029,495.846L319.795,494.46C320.271,493.961 322.026,492.402 324.712,492.402C327.375,492.402 329.021,493.961 329.021,495.889C329.021,498.12 326.812,499.224 325.534,499.852C324.257,500.481 322.156,501.628 321.874,503.253L329.259,503.253L329.259,504.986L319.622,504.986ZM375.067,503.348C375.353,503.686 375.743,503.894 376.055,503.894L377.849,503.894C378.213,502.932 378.447,501.788 378.447,500.748C378.447,498.72 377.459,497.264 376.029,497.264C374.677,497.264 373.637,498.408 373.637,499.942C373.637,501.32 374.183,502.672 375.067,503.348ZM336.539,493.831C334.417,493.831 332.966,495.781 332.966,498.64C332.966,501.498 334.417,503.427 336.539,503.427C338.618,503.427 340.091,501.498 340.091,498.64C340.091,495.781 338.618,493.831 336.539,493.831ZM390.772,489.282L390.772,492.142L387.626,492.142L387.626,489.282L390.772,489.282ZM385.39,489.282L385.39,492.142L371.791,492.142L371.791,489.282L385.39,489.282ZM373.429,475.164L375.353,476.36C374.209,477.998 373.611,479.636 373.611,481.327C373.611,483.042 374.287,484.134 375.509,484.134C376.653,484.134 377.017,483.042 377.615,480.598C378.473,477.192 379.175,475.84 381.281,475.84C384.037,475.84 385.623,478.18 385.623,481.17C385.623,483.146 384.947,485.071 383.881,486.5L382.139,485.279C383.127,483.953 383.596,482.548 383.596,481.119C383.596,479.663 383.023,478.518 381.697,478.518C380.579,478.518 380.293,479.298 379.747,481.508C378.863,485.252 378.057,486.891 375.743,486.891C373.169,486.891 371.531,484.732 371.531,481.378C371.531,479.194 372.233,476.724 373.429,475.164ZM375.795,460.604C378.343,460.604 380.085,462.971 380.085,466.351C380.085,467.624 379.851,468.951 379.461,469.939L380.397,469.939C382.399,469.939 383.595,468.743 383.595,466.611C383.595,465.181 383.049,463.777 382.035,462.294L383.855,461.411C385.025,463.153 385.623,464.947 385.623,466.871C385.623,470.589 383.621,472.799 380.085,472.799L375.171,472.799C374.521,472.799 374.261,473.007 374.235,473.605L371.791,473.605C371.687,473.059 371.661,472.565 371.661,472.201C371.739,471.109 372.285,470.537 373.143,470.407L374.001,470.329C372.415,469.107 371.531,467.235 371.531,465.206C371.531,462.581 373.377,460.604 375.795,460.604ZM375.067,469.393C375.353,469.731 375.743,469.939 376.055,469.939L377.849,469.939C378.213,468.977 378.447,467.832 378.447,466.792C378.447,464.765 377.459,463.309 376.029,463.309C374.677,463.309 373.637,464.453 373.637,465.987C373.637,467.365 374.183,468.717 375.067,469.393ZM169.616,387.831C169.616,383.954 172.517,380.709 176.66,380.709C180.827,380.709 183.544,384.033 183.544,387.726C183.544,388.095 183.518,388.465 183.491,388.622L172.069,388.622C172.28,391.34 174.312,393.239 176.712,393.239C178.4,393.239 180.062,392.315 180.643,390.944L182.646,391.498C181.75,393.529 179.403,394.98 176.633,394.98C172.491,394.98 169.616,391.709 169.616,387.831ZM107.879,389.204L107.879,380.947L110.2,380.947L110.2,388.755C110.2,391.577 111.176,392.975 113.128,392.975C115.027,392.975 116.848,391.683 117.665,389.573L117.665,380.947L119.986,380.947L119.986,391.868C119.986,392.448 120.197,392.686 120.725,392.712L120.725,394.717C120.329,394.769 120.04,394.822 119.802,394.822C118.747,394.822 118.113,394.268 118.061,393.424L117.982,391.762C116.769,393.82 114.631,394.98 112.258,394.98C109.383,394.98 107.879,393.002 107.879,389.204ZM185.208,387.858C185.208,383.954 187.82,380.709 191.46,380.709C193.675,380.709 195.497,382.029 196.498,383.691L196.498,375.461L198.819,375.461L198.819,391.868C198.819,392.448 199.03,392.686 199.558,392.712L199.558,394.717C199.188,394.769 198.873,394.822 198.635,394.822C197.58,394.822 196.894,394.189 196.867,393.424L196.815,392.132C195.733,393.899 193.755,394.98 191.776,394.98C187.952,394.98 185.208,391.657 185.208,387.858ZM207.661,390.76C207.661,388.149 210.061,386.434 213.463,386.434C214.809,386.434 216.26,386.698 217.315,387.12L217.315,386.012C217.315,383.77 215.97,382.398 213.674,382.398C212.251,382.398 210.799,382.952 209.296,384.007L208.532,382.503C210.298,381.317 212.04,380.709 213.939,380.709C217.447,380.709 219.636,382.768 219.636,386.25L219.636,391.868C219.636,392.448 219.848,392.686 220.375,392.712L220.375,394.717C220.032,394.77 219.689,394.822 219.425,394.822C218.661,394.822 217.737,394.426 217.684,393.424L217.632,392.448C216.392,394.11 214.281,394.98 212.408,394.98C209.639,394.98 207.661,393.108 207.661,390.76ZM138.245,394.03C137.664,394.294 136.372,394.901 134.895,394.901C133.206,394.901 131.783,394.004 131.783,392.026L131.783,382.767L129.91,382.767L129.91,380.947L131.783,380.947L131.783,376.357L134.104,376.357L134.104,380.947L137.19,380.947L137.19,382.767L134.104,382.767L134.104,391.313C134.156,392.315 134.843,392.764 135.66,392.764C136.583,392.764 137.427,392.342 137.691,392.184L138.245,394.03ZM123.973,375.461L126.294,375.461L126.294,391.155C126.294,392.185 126.875,392.792 127.85,392.792C128.246,392.792 128.827,392.659 129.275,392.475L129.644,394.347C128.88,394.664 127.692,394.901 126.875,394.901C125.081,394.901 123.973,393.82 123.973,392L123.973,375.461ZM202.727,380.947L205.048,380.947L205.048,394.717L202.727,394.717L202.727,380.947ZM140.251,380.947L142.572,380.947L142.572,394.717L140.251,394.717L140.251,380.947ZM104.498,394.716L102.177,394.716L102.177,387.013C102.177,384.138 101.227,382.793 99.407,382.793C97.534,382.793 95.899,384.296 95.266,386.433L95.266,394.716L92.944,394.716L92.944,387.013C92.944,384.085 92.021,382.793 90.201,382.793C88.354,382.793 86.693,384.244 86.06,386.406L86.06,394.716L83.739,394.716L83.739,380.946L85.849,380.946L85.849,383.901C86.956,381.869 88.83,380.709 91.071,380.709C93.366,380.709 94.764,382.107 95.081,384.059C96.294,381.869 98.088,380.709 100.33,380.709C103.496,380.709 104.498,383.189 104.498,386.486L104.498,394.716ZM166.974,394.716L164.653,394.716L164.653,387.013C164.653,384.138 163.703,382.793 161.883,382.793C160.01,382.793 158.374,384.296 157.742,386.433L157.742,394.716L155.42,394.716L155.42,387.013C155.42,384.085 154.497,382.793 152.677,382.793C150.83,382.793 149.168,384.244 148.536,386.406L148.536,394.716L146.214,394.716L146.214,380.946L148.325,380.946L148.325,383.901C149.433,381.869 151.306,380.709 153.548,380.709C155.842,380.709 157.241,382.107 157.557,384.059C158.77,381.869 160.564,380.709 162.806,380.709C165.972,380.709 166.974,383.189 166.974,386.486L166.974,394.716ZM216.814,391.604C217.157,391.208 217.315,390.813 217.315,390.522L217.315,388.491C216.234,388.069 214.968,387.832 213.834,387.832C211.46,387.832 209.876,388.887 209.876,390.549C209.876,391.973 211.038,393.24 212.989,393.24C214.466,393.24 216.023,392.527 216.814,391.604ZM196.498,389.889L196.498,385.933C195.839,384.139 193.86,382.714 192.12,382.714C189.403,382.714 187.609,385.246 187.609,387.885C187.609,390.654 189.666,392.975 192.331,392.975C193.992,392.975 196.156,391.604 196.498,389.889ZM181.354,386.908C181.117,384.27 179.112,382.45 176.66,382.45C174.206,382.45 172.202,384.296 172.017,386.908L181.354,386.908ZM140.251,375.46L142.572,375.46L142.572,378.361L140.251,378.361L140.251,375.46ZM202.727,375.46L205.048,375.46L205.048,378.361L202.727,378.361L202.727,375.46Z" style="fill:rgb(81,36,122);"/>
            <path d="M31.461,379.338L28.648,387.256L34.193,387.256L31.461,379.338ZM22.192,394.815L29.917,375.227L33.006,375.227L40.703,394.815L36.675,394.815L34.882,389.932L28.013,389.932L26.22,394.815L22.192,394.815ZM51.021,375.117C54.497,375.117 57.173,376.855 58.388,379.393L55.463,381.408C54.552,379.2 52.566,378.483 50.911,378.483C47.297,378.483 45.476,381.876 45.476,384.993C45.476,388.47 47.738,391.615 50.994,391.615C52.677,391.615 54.69,390.759 55.573,388.635L58.691,390.428C57.505,393.352 53.945,394.98 50.883,394.98C45.448,394.98 41.641,389.849 41.641,384.883C41.641,380.11 45.09,375.117 51.021,375.117M77.258,394.815L77.258,381.849L72.21,391.504L70.14,391.504L65.091,381.849L65.091,394.815L61.284,394.815L61.284,375.228L65.368,375.228L71.161,386.374L77.01,375.228L81.065,375.228L81.065,394.815L77.258,394.815Z" style="fill:rgb(183,37,1);fill-rule:nonzero;"/>
            <g transform="matrix(1,0,0,1,128.866,440.97)">
                <path d="M0,-8.038C0,-8.038 0.553,-7.568 0.553,-7.057C0.553,-6.545 -0.867,-6.659 -0.243,-5.977C0.382,-5.296 0.95,-4.216 1.405,-3.933C1.859,-3.648 0.273,-1.329 -0.068,-1.114C-1.002,-0.524 -2.287,-0.524 -2.571,0.044C-2.855,0.612 -5.096,0.311 -5.096,0.311C-5.096,0.311 -5.061,-3.198 -5.423,-3.563C-5.785,-3.929 -8.523,-5.023 -8.523,-5.023L-9.443,-5.587C-9.443,-5.587 -9.113,-6.026 -7.54,-6.758C-5.653,-7.636 -4.153,-7.546 -3.543,-7.696C-3.153,-7.792 -2.556,-8.65 -1.919,-8.532C-1.504,-8.455 0,-8.038 0,-8.038" style="fill:rgb(183,37,1);fill-rule:nonzero;"/>
            </g>
            <g transform="matrix(1,0,0,1,111.172,410.27)">
                <path d="M0,11.045C0,11.045 0.656,8.571 1.907,7.383C3.158,6.195 5.275,5.345 5.275,5.345C5.275,5.345 3.681,2.783 2.306,1.689C0.75,0.451 -0.381,-0.061 -0.381,-0.061C-0.381,-0.061 0.082,1.629 -0.382,2.317C-0.845,3.005 -1.721,3.818 -2.409,3.881C-3.096,3.943 -2.409,5.503 -2.409,5.503C-2.409,5.503 -2.721,6.882 -3.909,7.07C-3.909,7.07 -1.321,7.687 -1.254,9.397C-1.188,11.106 0,11.045 0,11.045" style="fill:rgb(183,37,1);fill-rule:nonzero;"/>
            </g>
            <g transform="matrix(-0.969785,-0.243959,-0.243959,0.969785,110.453,417.509)">
                <path d="M-0.558,-2.571C-0.558,-2.571 -1.896,-2.375 -1.888,-1.639C-1.879,-0.904 -1.192,0.107 -0.558,0.073C0.076,0.038 0.7,-0.239 1.042,-0.902C1.382,-1.568 0.777,-2.493 -0.558,-2.571" style="fill:white;fill-rule:nonzero;"/>
            </g>
            <g transform="matrix(1,0,0,1,125.442,439.14)">
                <path d="M0,-2.897C-0.549,-2.622 -0.909,-0.568 0,-0.398C0.909,-0.228 2.02,-0.114 2.259,0.113C2.499,0.341 3.294,-0.284 3.351,-0.739C3.408,-1.193 2.897,-2.727 1.875,-2.897C0.852,-3.067 0.682,-3.238 0,-2.897" style="fill:white;fill-rule:nonzero;"/>
            </g>
        </g>
    </g>
</svg>
