<svg xmlns="http://www.w3.org/2000/svg" xmlns:xlink="http://www.w3.org/1999/xlink" viewBox="0 0 206.27 72"><defs><style>.cls-1{fill:#231f20;}.cls-2{fill:url(#linear-gradient);}.cls-3{fill:#fffffe;}.cls-4{fill:url(#linear-gradient-2);}</style><linearGradient id="linear-gradient" x1="1411.14" y1="-53.65" x2="1462.05" y2="-2.73" gradientTransform="translate(-999.75 -959.88) rotate(45)" gradientUnits="userSpaceOnUse"><stop offset="0" stop-color="#66b9e2"/><stop offset="0.13" stop-color="#60b7e1"/><stop offset="0.31" stop-color="#50b0de"/><stop offset="0.51" stop-color="#35a4d9"/><stop offset="0.72" stop-color="#0f95d2"/><stop offset="0.8" stop-color="#008ecf"/></linearGradient><linearGradient id="linear-gradient-2" x1="924" y1="1851.86" x2="924" y2="1810.78" gradientTransform="translate(-888 -1796)" gradientUnits="userSpaceOnUse"><stop offset="0" stop-color="#76bfe4"/><stop offset="0.12" stop-color="#70bde3"/><stop offset="0.28" stop-color="#60b6e0"/><stop offset="0.46" stop-color="#45abdb"/><stop offset="0.66" stop-color="#1f9bd5"/><stop offset="0.8" stop-color="#008ecf"/></linearGradient></defs><g id="Layer_2" data-name="Layer 2"><g id="Layer_1-2" data-name="Layer 1"><path class="cls-1" d="M82.1,30.45,81.32,33H79.6l2.92-9.1h2.12l3,9.1H85.81L85,30.45Zm2.61-1.25L84,27c-.17-.56-.32-1.18-.46-1.71h0c-.14.53-.28,1.17-.44,1.71l-.7,2.24Z"/><path class="cls-1" d="M88.47,31.49a3.62,3.62,0,0,0,1.68.49c.73,0,1-.31,1-.74s-.27-.67-1.08-1c-1.28-.43-1.81-1.14-1.81-1.92,0-1.16,1-2.05,2.48-2.05a3.76,3.76,0,0,1,1.76.39l-.34,1.16a2.93,2.93,0,0,0-1.39-.38c-.59,0-.92.3-.92.71s.31.6,1.15.91c1.2.42,1.74,1,1.76,2,0,1.2-.94,2.07-2.68,2.07a4.28,4.28,0,0,1-2-.46Z"/><path class="cls-1" d="M93.9,31.49a3.58,3.58,0,0,0,1.67.49c.73,0,1.06-.31,1.06-.74s-.27-.67-1.08-1c-1.29-.43-1.81-1.14-1.81-1.92,0-1.16,1-2.05,2.48-2.05A3.79,3.79,0,0,1,98,26.7l-.34,1.16a2.93,2.93,0,0,0-1.39-.38c-.6,0-.92.3-.92.71s.31.6,1.15.91c1.2.42,1.74,1,1.75,2,0,1.2-.93,2.07-2.67,2.07a4.25,4.25,0,0,1-2-.46Z"/><path class="cls-1" d="M102.27,33.18A3.18,3.18,0,0,1,99,29.79a3.25,3.25,0,0,1,3.41-3.48,3.15,3.15,0,0,1,3.26,3.37,3.25,3.25,0,0,1-3.36,3.5Zm0-1.2c1,0,1.61-.92,1.61-2.26,0-1-.46-2.21-1.6-2.21s-1.64,1.15-1.64,2.24c0,1.27.63,2.23,1.62,2.23Z"/><path class="cls-1" d="M111.64,32.83a4.83,4.83,0,0,1-1.86.34,3.17,3.17,0,0,1-3.39-3.36,3.38,3.38,0,0,1,3.65-3.5,4.28,4.28,0,0,1,1.61.3l-.3,1.25a2.78,2.78,0,0,0-1.25-.26,2,2,0,0,0-2,2.14,2,2,0,0,0,2,2.12,3.44,3.44,0,0,0,1.31-.26Z"/><path class="cls-1" d="M113.49,25.51a.87.87,0,0,1-.92-.89.93.93,0,1,1,.93.89ZM112.66,33V26.46h1.66V33Z"/><path class="cls-1" d="M121,31.45a8.87,8.87,0,0,0,.11,1.58h-1.5l-.12-.73h0a2.39,2.39,0,0,1-2,.88,2,2,0,0,1-2.06-2c0-1.64,1.47-2.5,3.9-2.48v-.11c0-.43-.18-1.15-1.34-1.15a3.56,3.56,0,0,0-1.77.49l-.32-1.08a4.73,4.73,0,0,1,2.38-.58A2.46,2.46,0,0,1,121,29.09v2.36Zm-1.62-1.63c-1.18,0-2.3.23-2.3,1.23a.87.87,0,0,0,1,.94,1.38,1.38,0,0,0,1.31-.9,1.17,1.17,0,0,0,0-.37v-.9Z"/><path class="cls-1" d="M124.4,24.77v1.69H126V27.7H124.4v2.89c0,.81.21,1.21.85,1.21a2.27,2.27,0,0,0,.64-.06l0,1.25a3.54,3.54,0,0,1-1.21.18,1.92,1.92,0,0,1-1.42-.54,2.58,2.58,0,0,1-.53-1.85V27.7h-.93V26.46h.93V25.23Z"/><path class="cls-1" d="M127.85,25.51a.9.9,0,1,1,1-.89.88.88,0,0,1-1,.89ZM127,33V26.46h1.66V33Z"/><path class="cls-1" d="M133.16,33.18a3.18,3.18,0,0,1-3.3-3.39,3.24,3.24,0,0,1,3.4-3.48,3.16,3.16,0,0,1,3.27,3.37,3.25,3.25,0,0,1-3.36,3.5Zm.05-1.2c.95,0,1.61-.92,1.61-2.26,0-1-.46-2.21-1.6-2.21s-1.64,1.15-1.64,2.24c0,1.27.63,2.23,1.62,2.23Z"/><path class="cls-1" d="M137.69,28.41c0-.75,0-1.39-.05-1.95h1.44l.08,1h0a2.42,2.42,0,0,1,2.11-1.13c1.14,0,2.33.74,2.33,2.82V33H142V29.32c0-.95-.35-1.66-1.25-1.66a1.38,1.38,0,0,0-1.3,1,1.41,1.41,0,0,0-.08.53V33h-1.66V28.41Z"/><path class="cls-1" d="M148,33V27.7h-.89V26.46H148v-.29a3.06,3.06,0,0,1,.8-2.24,2.49,2.49,0,0,1,1.71-.63,3.53,3.53,0,0,1,1.06.16l-.11,1.28a2,2,0,0,0-.72-.12c-.82,0-1.09.69-1.09,1.5v.34h1.44V27.7h-1.43V33Z"/><path class="cls-1" d="M154.63,33.18a3.18,3.18,0,0,1-3.29-3.39,3.24,3.24,0,0,1,3.4-3.48A3.16,3.16,0,0,1,158,29.68a3.25,3.25,0,0,1-3.36,3.5Zm.06-1.2c.94,0,1.6-.92,1.6-2.26,0-1-.46-2.21-1.59-2.21s-1.64,1.15-1.64,2.24c0,1.27.63,2.23,1.61,2.23Z"/><path class="cls-1" d="M159.17,28.58c0-.9,0-1.54,0-2.12h1.43l.06,1.24h0a2,2,0,0,1,1.8-1.39,1.64,1.64,0,0,1,.4,0V27.9a2.47,2.47,0,0,0-.5,0,1.45,1.45,0,0,0-1.48,1.26,2.53,2.53,0,0,0,0,.5V33h-1.67V28.58Z"/><path class="cls-1" d="M86.8,47.76a6,6,0,0,1-2.36.41,4.3,4.3,0,0,1-4.65-4.58,4.57,4.57,0,0,1,4.88-4.79,5.07,5.07,0,0,1,2.19.39l-.35,1.32a4.45,4.45,0,0,0-1.78-.35,3,3,0,0,0-3.18,3.35,3,3,0,0,0,3.17,3.27,5.28,5.28,0,0,0,1.81-.32Z"/><path class="cls-1" d="M90.61,48.18a3.18,3.18,0,0,1-3.3-3.39,3.24,3.24,0,0,1,3.4-3.48A3.16,3.16,0,0,1,94,44.68a3.25,3.25,0,0,1-3.36,3.5Zm0-1.2c1,0,1.61-.92,1.61-2.26,0-1-.46-2.21-1.6-2.21S89,43.66,89,44.75C89,46,89.66,47,90.65,47Z"/><path class="cls-1" d="M95.14,43.41c0-.75,0-1.39,0-1.95h1.42l.08,1h0a2.24,2.24,0,0,1,2-1.12,1.89,1.89,0,0,1,1.82,1.21h0a2.7,2.7,0,0,1,.79-.82,2.28,2.28,0,0,1,1.36-.39c1.08,0,2.18.74,2.18,2.85V48h-1.62V44.4c0-1.09-.37-1.74-1.17-1.74a1.25,1.25,0,0,0-1.16.88,1.55,1.55,0,0,0-.08.55V48H99.18V44.22c0-.91-.37-1.56-1.14-1.56a1.32,1.32,0,0,0-1.2.93,2.1,2.1,0,0,0-.08.56V48H95.14V43.41Z"/><path class="cls-1" d="M106.39,43.65c0-.87,0-1.57-.06-2.19h1.46l.08,1h0a2.55,2.55,0,0,1,2.25-1.16c1.52,0,2.77,1.3,2.77,3.35,0,2.38-1.5,3.52-3,3.52a2.16,2.16,0,0,1-1.85-.88h0v3.41h-1.66Zm1.66,1.63a2.32,2.32,0,0,0,0,.46,1.51,1.51,0,0,0,1.47,1.16c1,0,1.67-.88,1.67-2.18s-.56-2.1-1.63-2.1a1.58,1.58,0,0,0-1.5,1.23,2.87,2.87,0,0,0,0,.41Z"/><path class="cls-1" d="M120,46.06c0,.78,0,1.44,0,2h-1.44l-.08-1h0a2.41,2.41,0,0,1-2.12,1.14c-1.19,0-2.28-.72-2.28-2.87V41.47h1.66V45c0,1.1.35,1.8,1.23,1.8a1.36,1.36,0,0,0,1.27-.9,1.14,1.14,0,0,0,.09-.51v-4H120v4.6Z"/><path class="cls-1" d="M123.46,39.77v1.69H125V42.7h-1.58v2.89c0,.81.22,1.22.86,1.22a2.27,2.27,0,0,0,.64-.07L125,48a3.79,3.79,0,0,1-1.2.17,1.89,1.89,0,0,1-1.43-.54,2.56,2.56,0,0,1-.53-1.85V42.7h-.93V41.46h.93V40.23Z"/><path class="cls-1" d="M126.92,40.51a.9.9,0,1,1,0-1.79.9.9,0,1,1,0,1.79ZM126.1,48V41.46h1.66V48Z"/><path class="cls-1" d="M129.35,43.41c0-.75,0-1.39,0-1.95h1.44l.08,1h0A2.42,2.42,0,0,1,133,41.31c1.14,0,2.33.74,2.33,2.82V48h-1.66V44.31c0-.94-.35-1.66-1.25-1.66a1.41,1.41,0,0,0-1.3,1,1.58,1.58,0,0,0-.08.52V48h-1.66V43.41Z"/><path class="cls-1" d="M142.82,47.07a3.16,3.16,0,0,1-3.51,3.78,4.84,4.84,0,0,1-2.29-.52l.36-1.26a4,4,0,0,0,1.91.5,1.75,1.75,0,0,0,1.9-2V47h0a2.21,2.21,0,0,1-1.92,1,2.91,2.91,0,0,1-2.79-3.21c0-2.16,1.41-3.47,3-3.47a2,2,0,0,1,1.9,1h0l.06-.87h1.45c0,.44-.06,1-.06,1.89v3.73Zm-1.66-3a1.52,1.52,0,0,0,0-.44,1.39,1.39,0,0,0-1.36-1.07c-.93,0-1.61.81-1.61,2.15,0,1.12.56,2,1.6,2a1.41,1.41,0,0,0,1.35-1,1.87,1.87,0,0,0,.07-.59V44.09Z"/><path class="cls-1" d="M154.74,44.32c-.05-1.18-.12-2.58-.1-3.82h0c-.29,1.1-.67,2.33-1.08,3.48l-1.33,3.94h-1.27L149.69,44c-.35-1.16-.67-2.4-.91-3.54h0c0,1.19-.1,2.64-.16,3.88l-.2,3.65h-1.56l.61-9.09h2.19l1.19,3.65c.32,1.07.6,2.15.83,3.16h0c.25-1,.56-2.1.91-3.17l1.25-3.65H156l.53,9.1h-1.62Z"/><path class="cls-1" d="M163.11,46.45a8.87,8.87,0,0,0,.11,1.58h-1.5l-.12-.73h0a2.43,2.43,0,0,1-1.95.88,2,2,0,0,1-2.06-2c0-1.64,1.47-2.5,3.9-2.48v-.11c0-.43-.17-1.15-1.34-1.15a3.49,3.49,0,0,0-1.76.49L158,41.89a4.73,4.73,0,0,1,2.38-.58,2.46,2.46,0,0,1,2.71,2.78v2.36Zm-1.62-1.63c-1.17,0-2.29.23-2.29,1.23a.87.87,0,0,0,.94.94,1.36,1.36,0,0,0,1.31-.9,1.14,1.14,0,0,0,0-.37v-.9Z"/><path class="cls-1" d="M169.5,47.83a4.85,4.85,0,0,1-1.87.34,3.17,3.17,0,0,1-3.38-3.36,3.38,3.38,0,0,1,3.65-3.5,4.28,4.28,0,0,1,1.61.3l-.3,1.25a2.8,2.8,0,0,0-1.25-.25,2.13,2.13,0,0,0,0,4.25,3.26,3.26,0,0,0,1.31-.26Z"/><path class="cls-1" d="M170.52,38.43h1.66v3.92h0a2.09,2.09,0,0,1,.82-.74,2.35,2.35,0,0,1,1.15-.3c1.12,0,2.29.74,2.29,2.85V48h-1.66V44.34c0-1-.35-1.68-1.27-1.68a1.39,1.39,0,0,0-1.3.93,1.63,1.63,0,0,0-.06.5V48h-1.66v-9.6Z"/><path class="cls-1" d="M178.87,40.51a.87.87,0,0,1-.92-.89.93.93,0,1,1,.93.89ZM178,48V41.46h1.67V48Z"/><path class="cls-1" d="M181.3,43.41c0-.75,0-1.39-.06-1.95h1.45l.08,1h0a2.42,2.42,0,0,1,2.1-1.13c1.15,0,2.34.74,2.34,2.82V48h-1.66V44.31c0-.94-.36-1.66-1.26-1.66a1.39,1.39,0,0,0-1.29,1,1.35,1.35,0,0,0-.08.52V48H181.3V43.41Z"/><path class="cls-1" d="M190,45.21a1.78,1.78,0,0,0,2,1.7,5.07,5.07,0,0,0,1.82-.3l.25,1.14a6,6,0,0,1-2.3.42,3.12,3.12,0,0,1-3.39-3.32,3.26,3.26,0,0,1,3.21-3.54c2.14,0,2.84,1.75,2.84,3.2a5.09,5.09,0,0,1-.05.7Zm2.89-1.16a1.42,1.42,0,0,0-1.36-1.61A1.63,1.63,0,0,0,190,44.05Z"/><path class="cls-1" d="M195.58,43.58c0-.89,0-1.54-.05-2.12H197L197,42.7h0a2,2,0,0,1,1.81-1.39,1.64,1.64,0,0,1,.4,0V42.9a2.47,2.47,0,0,0-.5,0,1.45,1.45,0,0,0-1.48,1.26,2.49,2.49,0,0,0,0,.5V48h-1.66V43.58Z"/><path class="cls-1" d="M201.53,41.46,202.71,45c.13.4.28.9.38,1.27h0c.09-.36.21-.86.35-1.28l1-3.51h1.77l-1.64,4.48c-.91,2.45-1.52,3.55-2.28,4.22a3.49,3.49,0,0,1-1.75.84l-.37-1.39a2.83,2.83,0,0,0,1-.46,2.79,2.79,0,0,0,.92-1,.7.7,0,0,0,.1-.3,1,1,0,0,0-.08-.32l-2.42-6Z"/><polygon class="cls-2" points="36 72 0 36 36 0 72 36 36 72"/><circle class="cls-3" cx="36" cy="36" r="22.07"/><circle class="cls-4" cx="36" cy="36" r="19.86"/><path class="cls-3" d="M24.43,39.87l-.54.45a3.18,3.18,0,0,1-.65.41,4.77,4.77,0,0,1-.78.3,4.67,4.67,0,0,1-1.06.1,2.83,2.83,0,0,1-2.1-.86,2.91,2.91,0,0,1-.84-2.14,3.15,3.15,0,0,1,.43-1.72,2.85,2.85,0,0,1,1.22-1A6.67,6.67,0,0,1,22,34.82c.75-.1,1.55-.18,2.41-.23v-.06a1.12,1.12,0,0,0-.58-1.09,4,4,0,0,0-1.75-.3,4.68,4.68,0,0,0-1.23.19,9.78,9.78,0,0,0-1.37.5h-.26V31.51a13,13,0,0,1,1.44-.3,11,11,0,0,1,2-.18,6.25,6.25,0,0,1,3.6.82,2.92,2.92,0,0,1,1.13,2.51v6.52h-3v-1Zm0-1.49v-2l-1.21.13a3.54,3.54,0,0,0-.91.21,1.35,1.35,0,0,0-.61.41,1.19,1.19,0,0,0-.21.73,1.08,1.08,0,0,0,.36.93,1.89,1.89,0,0,0,1.06.24,2.12,2.12,0,0,0,.79-.17A2.56,2.56,0,0,0,24.43,38.38Z"/><path class="cls-3" d="M34,41.13a7.51,7.51,0,0,1-2.18-.3,4.74,4.74,0,0,1-1.7-.92A4.06,4.06,0,0,1,29,38.35a5.61,5.61,0,0,1-.4-2.22A5.69,5.69,0,0,1,29,33.79a4.46,4.46,0,0,1,1.18-1.58,4.81,4.81,0,0,1,1.68-.88,7.29,7.29,0,0,1,3.61-.1,7.55,7.55,0,0,1,1.6.58v2.57h-.39c-.12-.12-.27-.24-.44-.38a4,4,0,0,0-.57-.38,3.48,3.48,0,0,0-.73-.3A3.23,3.23,0,0,0,34,33.2a2.1,2.1,0,0,0-1.77.79,3.34,3.34,0,0,0-.63,2.14,3,3,0,0,0,.67,2.14,2.35,2.35,0,0,0,1.78.71,3.35,3.35,0,0,0,1-.13,3.57,3.57,0,0,0,.73-.3,3.05,3.05,0,0,0,.51-.37l.37-.34h.39v2.55l-.6.25a4.23,4.23,0,0,1-.68.24,8.27,8.27,0,0,1-.82.18A6.48,6.48,0,0,1,34,41.13Z"/><path class="cls-3" d="M50.08,40.88V36.1q0-.7,0-1.2a2.71,2.71,0,0,0-.15-.79.86.86,0,0,0-.4-.44,1.57,1.57,0,0,0-.76-.15,1.76,1.76,0,0,0-.67.15,3.84,3.84,0,0,0-.73.43v6.78h-3V36.1c0-.47,0-.86,0-1.19a3,3,0,0,0-.16-.8.86.86,0,0,0-.4-.44,1.56,1.56,0,0,0-.75-.15,1.72,1.72,0,0,0-.72.17,5.34,5.34,0,0,0-.68.41v6.78h-3V31.32h3v1a8.17,8.17,0,0,1,1.38-1,3,3,0,0,1,1.45-.35,2.8,2.8,0,0,1,1.54.42,2.63,2.63,0,0,1,1,1.24,8.89,8.89,0,0,1,1.62-1.23,3.18,3.18,0,0,1,1.54-.43,3.06,3.06,0,0,1,1.2.22,2.26,2.26,0,0,1,.89.63,2.93,2.93,0,0,1,.6,1.1,5.42,5.42,0,0,1,.2,1.65v6.23Z"/></g></g></svg>