<svg xmlns="http://www.w3.org/2000/svg" viewBox="0 0 468.11 179.04"><defs><style>.cls-1{fill:#ed1c24;}</style></defs><g id="Layer_2" data-name="Layer 2"><g id="Layer_1-2" data-name="Layer 1"><polygon class="cls-1" points="79.13 111.77 97.75 65.32 97.75 0 79.13 46.46 79.13 111.77"/><polygon class="cls-1" points="125.89 22.14 125.89 87.42 83.94 114.29 110.79 73.63 110.79 31.8 125.89 22.14"/><polygon class="cls-1" points="86.54 119.07 136 99.13 136 48.72 150.03 48.72 150.03 119.07 86.54 119.07"/><polygon class="cls-1" points="70.9 111.77 52.28 65.32 52.28 0 70.9 46.46 70.9 111.77"/><polygon class="cls-1" points="24.14 22.14 24.14 87.42 66.09 114.29 39.24 73.63 39.24 31.8 24.14 22.14"/><polygon class="cls-1" points="63.49 119.07 14.03 99.13 14.03 48.72 0 48.72 0 119.07 63.49 119.07"/><path class="cls-1" d="M358.68,15.64c0,4.17,3.94,7.54,8.8,7.54s8.78-3.37,8.78-7.54-3.94-7.52-8.78-7.52S358.68,11.47,358.68,15.64Z"/><path class="cls-1" d="M321.68,14.94c-1.44-.16-3.2-.29-3.92-.29-7.62,0-9.37,2.24-9.37,7v6.87H325.5V25.27c0-6.64.76-11.76,6.64-15.27,5.4-3.22,13.76-3.68,19.76-3.68,1.39,0,3.54.09,5.7.27a12,12,0,0,0-4.09,8.4c-1.35-.18-2.89-.34-3.58-.34-7.3,0-8.06,3-8.06,7v6.87h33.52v43.6H359V37.26H341.9V72.12H325.5V37.35H308.39V72.12H292V37.35h-6.35V28.53H292V25.27c0-6.64.78-11.76,6.64-15.27C304,6.78,314,6.11,321.77,6.11c2.51,0,4.63.06,6.5.2A16.53,16.53,0,0,0,321.68,14.94Z"/><path class="cls-1" d="M254.13,27.29c-6,0-8.84,5.57-10.24,10.49V28.53h-16.4V72.12H243.9v-21c0-6.71,3.71-12.76,8.83-12.76a22.8,22.8,0,0,1,4.92.76V27.59A20.74,20.74,0,0,0,254.13,27.29Z"/><rect class="cls-1" x="262.65" y="28.53" width="16.4" height="43.62"/><path class="cls-1" d="M262.09,15.64c0,4.17,3.93,7.54,8.78,7.54s8.79-3.37,8.79-7.54-3.94-7.52-8.76-7.52S262.09,11.47,262.09,15.64Z"/><path class="cls-1" d="M417.8,63.12a37.83,37.83,0,0,1-6.63.59c-7.86,0-7.76-5.44-7.76-11.6V37.35H417.8V28.53H403.41V8.7H387V28.53h-6.35v8.82H387V54.12c0,6.64.76,11.77,6.62,15.27,5.41,3.23,12,3.69,18.13,3.69,1.28,0,3.44-.08,6-.24Z"/><path class="cls-1" d="M464.9,32.79c-3.5-4-8.15-5.5-13.37-5.5-4.17,0-8.72.87-11.85,4V8.72h-16.4v63.4h16.4V45c0-4.52.94-7.81,5.68-7.81,4.21,0,5.8,2.22,5.8,9.23V72.12h16.4v-26C467.59,41.52,468.16,36.4,464.9,32.79Z"/><path class="cls-1" d="M220,21.89c-5.35-2.69-11.92-3.69-17.3-3.69-13.78,0-21.1,8-21.1,19.55,0,11.8,4.13,25.41,18,25.41a17.06,17.06,0,0,0,3.84-.29V38.61H220V70.17a78.16,78.16,0,0,1-20.45,3c-20,0-36.11-11.31-36.11-32.6,0-21.62,15.49-33.52,39.5-33.52A88.93,88.93,0,0,1,220,9.65Z"/><path d="M352.1,91a6.32,6.32,0,0,1-2,4.93,10.11,10.11,0,0,1-5.55,2.39,54.53,54.53,0,0,1-6.13.23h-6.18V84.12h9.39a28.67,28.67,0,0,1,4.9.29A6,6,0,0,1,349.86,86,6.6,6.6,0,0,1,352.1,91Zm7.33,28.1-6.37-13.3c-1.27-2.63-3.37-4.81-5-5a12.32,12.32,0,0,0,5.37-2.58,9.19,9.19,0,0,0,2.8-7,10.47,10.47,0,0,0-3.41-8,10.62,10.62,0,0,0-5.65-2.49,56.61,56.61,0,0,0-6.38-.24H328v38.66h4.18v-17h8.26c3.22,0,5.42.49,6.62,1.62a11.69,11.69,0,0,1,1.85,2.67c.19.38.67,1.35,1.42,2.9l4.66,9.81Z"/><path d="M193.22,116c-2.54,2.46-6.92,3.68-11.37,3.68s-8.74-1.26-11.36-3.8a11.7,11.7,0,0,1-3.4-7,62.87,62.87,0,0,1-.3-8V80.52H171v24.25q0,6.21,2.39,8.53c1.9,1.78,5.3,2.68,8.68,2.68,3.1,0,6.37-.8,8.06-2.39s2.59-4.11,2.72-7.56V80.52h4.09v21.14a65.66,65.66,0,0,1-.3,7.68A12,12,0,0,1,193.22,116Z"/><path d="M232.9,119.12,209.4,87.48l.06,31.64H205.4V80.52h4.5l23.8,32.12,0-32.12h4v38.6Z"/><path d="M246,119.12V80.52h4.29v38.6Z"/><path d="M275,119.12h-4.77l-14.75-38.6h4.79l12.46,33.79,12.75-33.79H290Z"/><path d="M294.37,119.12V80.52h26.47v3.69H298.55V96.94h20.13v3.63H298.55v14.7H322v3.85Z"/><path d="M385.4,86.91a11.17,11.17,0,0,0-4.5-2.79,14.56,14.56,0,0,0-4.63-.69c-2.86,0-4.89.52-6.49,1.74a5.4,5.4,0,0,0-2.3,4.49c0,2.33,1.67,4.27,5,5.8,2.16.82,4.49,1.63,6.64,2.44a21.11,21.11,0,0,1,5.89,3.31,9.25,9.25,0,0,1,3.29,7.08,10.58,10.58,0,0,1-3.27,8.15c-2.44,2.21-5.91,3.23-10.25,3.23a18.64,18.64,0,0,1-12.66-4.52l2.49-2.89a18.27,18.27,0,0,0,10.15,3.62c3.06,0,5.31-.47,6.88-1.83a7.08,7.08,0,0,0,2.43-5.56c0-2.13-1.16-4-3.64-5.52A54.84,54.84,0,0,0,373.6,100a27.84,27.84,0,0,1-7-3.51,8.4,8.4,0,0,1-3.16-6.79,8.76,8.76,0,0,1,3.47-7.14,14,14,0,0,1,9-2.79,19.48,19.48,0,0,1,6.16.9,15.16,15.16,0,0,1,6,3.68Z"/><path d="M395.53,119.12V80.52h4.29v38.6Z"/><path d="M421,84.21v34.91H416.9V84.21H405.07V80.52h27.08v3.69Z"/><path d="M453.3,103.46v15.66h-4.11V103.46L434.26,80.52h5l12.13,18.6,11.82-18.6h4.9Z"/><path d="M171.9,174.48l-.05-.07h-.07c-4.14-.59-8.32-4.74-8.32-11.51,0-7,4.32-11.89,10.51-11.89s10.3,4.82,10.3,11.72c0,4.94-2.34,11-8.93,11.68H175l.21.25c1.28,1.54,3.54,2.35,6.55,2.35a15.6,15.6,0,0,0,2.16-.18H184c0,.27.25,1.61.29,1.86A14.33,14.33,0,0,1,181,179C176.9,179.06,173.9,177.56,171.9,174.48Zm-5.6-11.66c0,5.53,3.21,9.54,7.63,9.54,4.63,0,7.5-3.73,7.5-9.75,0-5.58-3.08-9.33-7.67-9.33s-7.49,3.74-7.49,9.54Z"/><path d="M201.68,157.79v16.44H199.4v-1.4l-.34.23a9.19,9.19,0,0,1-5.07,1.62,5.92,5.92,0,0,1-4-1.33c-1.55-1.55-1.55-3.32-1.55-6v-9.57H191v9.34c0,2.2,0,3.59,1,4.5a3.57,3.57,0,0,0,2.48.88A9.54,9.54,0,0,0,199,171l.08-.06v-13.2Z"/><path d="M205.81,166.12c0-5.24,3.07-8.76,7.63-8.76,4.21,0,6.73,3.07,6.73,8.21l-.06,1.07h-11.7v.26a5.73,5.73,0,0,0,1.52,4.09,5.31,5.31,0,0,0,3.93,1.48,9.5,9.5,0,0,0,4.68-1.25l1,1.72a10.56,10.56,0,0,1-5.88,1.68C208.9,174.61,205.81,171.28,205.81,166.12Zm2.64-1.64v.19h9.25v-.18c0-1.9-.89-5.13-4.21-5.13-2.78,0-4.8,2-5,5.11Z"/><path d="M223.43,166.12c0-5.24,3.06-8.76,7.63-8.76,4.21,0,6.72,3.07,6.72,8.21v1.07h-11.7v.26A5.73,5.73,0,0,0,227.6,171a5.34,5.34,0,0,0,3.92,1.48,9.41,9.41,0,0,0,4.69-1.25c.13.24.82,1.5,1,1.72a10.64,10.64,0,0,1-5.88,1.68C226.49,174.61,223.43,171.28,223.43,166.12Zm2.63-1.64v.19h9.24v-.18c0-1.9-.88-5.13-4.2-5.13-2.77,0-4.79,2-5,5.11Z"/><path d="M244.47,159l.09-.06a9.21,9.21,0,0,1,5-1.6,5.33,5.33,0,0,1,3.9,1.4c1.54,1.53,1.61,3.16,1.61,5.91v9.57h-2.59v-9.37c0-2.19,0-3.58-.95-4.49a3.63,3.63,0,0,0-2.48-.88,9.34,9.34,0,0,0-4.52,1.49h-.07v13.2H241.9V157.79h2.28v1.4Z"/><path d="M267.41,169.93c0-1.65-1.74-2.38-3.57-3.16-2.22-.94-4.72-2-4.72-4.85,0-2.69,2.33-4.57,5.68-4.57a9.18,9.18,0,0,1,5.08,1.36l-1,1.68a8.44,8.44,0,0,0-3.92-1.07c-2,0-3.26,1-3.26,2.42s1.71,2.25,3.52,3c2.28,1,4.87,2.07,4.87,5,0,3.41-3.09,5-6,5a10.38,10.38,0,0,1-5.53-1.54l.95-1.76a8.64,8.64,0,0,0,4.4,1.23C266,172.61,267.41,171.47,267.41,169.93Z"/><path d="M276.8,149.58v24.65h-2.6V149.58Z"/><path d="M287.62,157.35a6.7,6.7,0,0,1,4.74,1.64c1.21,1.22,1.29,2.65,1.29,4.87v10.37h-2.28v-1.39l-.4.24a9.12,9.12,0,0,1-4.91,1.5,4.86,4.86,0,0,1-5.22-4.47,4.69,4.69,0,0,1,0-.53c0-5.52,7.07-5.52,9.39-5.52h.94v-1.24a3.09,3.09,0,0,0-.74-2.49,4.27,4.27,0,0,0-3.08-.91,9.38,9.38,0,0,0-4.53,1.26l-.93-1.71A10.24,10.24,0,0,1,287.62,157.35Zm3.36,8.56h-.86c-3,0-5,.49-6,1.5a2.73,2.73,0,0,0-.81,2.06c0,1.86,1.37,3.06,3.5,3.06a8.89,8.89,0,0,0,4.05-1.15l.32-.16v-5.31Z"/><path d="M301,159l.1-.06a9.13,9.13,0,0,1,5-1.6,5.28,5.28,0,0,1,3.91,1.4c1.54,1.53,1.61,3.16,1.61,5.91v9.57H309v-9.37c0-2.18,0-3.58-1-4.49a3.58,3.58,0,0,0-2.48-.88A9.34,9.34,0,0,0,301,161H301v13.2h-2.59V157.79h2.28v1.4Z"/><path d="M329.9,149.58v24.65h-2.28V172.7l-.32.27a6.93,6.93,0,0,1-4.57,1.64c-4.34,0-7.25-3.37-7.25-8.39s3.37-8.87,8-8.87a6.64,6.64,0,0,1,3.5.94l.32.2v-8.91Zm-11.76,16.64c0,3.68,2.11,6.24,5.13,6.24a6.28,6.28,0,0,0,4-1.45l.1-.08V160.69l-.09-.07a5.58,5.58,0,0,0-3.45-1.13C320.36,159.49,318.14,162.12,318.14,166.22Z"/><path d="M336.1,171.9v.22a7.37,7.37,0,0,1-2.8,5.75l-1.16-1a7.46,7.46,0,0,0,1.7-4.42v-.59Z"/><path d="M355.61,151.44c.08.23,8.17,22.33,8.33,22.79h-2.88l-2.11-6h-9.79l-2.12,6H344.3c.16-.46,8.18-22.56,8.26-22.79Zm-1.71,3.07-4,11.5h8.3L354,154Z"/><path d="M379.9,157.79v16.44h-2.28v-1.4l-.35.23a9.16,9.16,0,0,1-5.06,1.62,5.94,5.94,0,0,1-4-1.33c-1.54-1.55-1.54-3.32-1.54-6v-9.57h2.59v9.34c0,2.2.05,3.59,1,4.5a3.52,3.52,0,0,0,2.48.88,9.39,9.39,0,0,0,4.5-1.48l.08-.06v-13.2Z"/><path d="M392.46,169.93c0-1.65-1.74-2.38-3.57-3.16-2.21-.94-4.72-2-4.72-4.85,0-2.69,2.34-4.57,5.68-4.57a9.09,9.09,0,0,1,5.08,1.36l-.94,1.68a8.44,8.44,0,0,0-3.93-1.07c-2,0-3.26,1-3.26,2.42s1.71,2.25,3.52,3c2.29,1,4.88,2.07,4.88,5,0,3.41-3.09,5-6,5a10.42,10.42,0,0,1-5.5-1.62l.95-1.76a8.67,8.67,0,0,0,4.41,1.23C391,172.61,392.46,171.47,392.46,169.93Z"/><path d="M403.1,153.12v4.71h5.17v2.08H403.1v9.21c0,1.58,0,3.36,2.64,3.36a6,6,0,0,0,2.22-.4c.09.26.56,1.54.65,1.77a7.28,7.28,0,0,1-3.39.82,5,5,0,0,1-3.66-1.24c-1.07-1.07-1.06-2.59-1.06-4.35v-9.19h-3v-2.08h3v-4.69Z"/><path d="M414.65,159.91h0a6.82,6.82,0,0,1,5.25-2.53,4.1,4.1,0,0,1,1.59.23c-.07.25-.53,1.82-.61,2.07a6.92,6.92,0,0,0-1.11-.09,5.89,5.89,0,0,0-5,2.68l-.12.17v11.82h-2.6V157.79h2.29v2.51Z"/><path d="M429.8,157.35a6.66,6.66,0,0,1,4.73,1.64c1.17,1.18,1.3,2.44,1.3,4.87v10.37h-2.28v-1.39l-.39.24a9.15,9.15,0,0,1-4.92,1.5A4.87,4.87,0,0,1,423,170.1a4.56,4.56,0,0,1,0-.52c0-5.52,7.08-5.52,9.4-5.52h.94v-1.24a3.09,3.09,0,0,0-.74-2.49,4.27,4.27,0,0,0-3.08-.91,9.38,9.38,0,0,0-4.53,1.26c-.14-.25-.81-1.5-.93-1.71A10.24,10.24,0,0,1,429.8,157.35Zm3.37,8.56h-.87c-3,0-5,.49-6,1.5a2.7,2.7,0,0,0-.81,2.06c0,1.86,1.37,3.06,3.5,3.06a8.77,8.77,0,0,0,4.05-1.15l.32-.16v-5.31Z"/><path d="M443.18,149.58v24.65h-2.59V149.58Z"/><path d="M447.84,152.28a1.63,1.63,0,1,1,1.64,1.62h0a1.6,1.6,0,0,1-1.62-1.58Z"/><path d="M450.78,157.79v16.44h-2.6V157.79Z"/><path d="M461.56,157.35A6.73,6.73,0,0,1,466.3,159c1.17,1.19,1.3,2.45,1.3,4.88v10.37h-2.28v-1.39l-.4.24a9.35,9.35,0,0,1-4.92,1.5,4.87,4.87,0,0,1-5.22-4.49,4.34,4.34,0,0,1,0-.51c0-5.52,7.07-5.52,9.39-5.52h.94v-1.24a3.09,3.09,0,0,0-.74-2.49,4.26,4.26,0,0,0-3.07-.91,9.39,9.39,0,0,0-4.54,1.26l-.92-1.71A10.2,10.2,0,0,1,461.56,157.35Zm3.37,8.56h-.87c-3,0-5,.49-6,1.5a2.74,2.74,0,0,0-.82,2.06c0,1.86,1.38,3.06,3.5,3.06a9.1,9.1,0,0,0,4.07-1.16l.3-.15v-5.31Z"/><rect x="163.44" y="135.79" width="304.16" height="1.58"/></g></g></svg>