<svg xmlns="http://www.w3.org/2000/svg" viewBox="0 0 2979.63 580.58"><defs><style>.cls-1{fill:#fff;}.cls-2{font-size:181px;fill:#006dae;font-family:RobotoCondensed-Regular, Roboto Condensed;letter-spacing:-0.02em;}.cls-3{letter-spacing:-0.01em;}.cls-4{letter-spacing:-0.02em;}.cls-5{fill:#000;}.cls-6{fill:none;stroke:#231f20;stroke-miterlimit:10;stroke-width:5px;}</style></defs><g id="Layer_2" data-name="Layer 2"><g id="Layer_1-2" data-name="Layer 1"><path d="M744.83,296V431.69c0,55.86-22.91,81.74-72.07,81.74-57,0-68.92-44.46-68.92-81.74V296H587.23V431.69c0,64,28.79,96.5,85.53,96.5,58.8,0,88.68-32.49,88.68-96.5V296Z"/><path d="M869,354.93c-25.48,0-47.59,13.7-57,34.45V358.69H797.27V522.86H812v-88.7c0-40.14,22.26-66.07,56.65-66.07,44.44,0,44.44,38.64,44.44,51.34V522.86h14.7V421.64C927.79,403.37,927.79,354.93,869,354.93Z"/><path d="M964.25,358.69V522.87H979V358.69Z"/><path d="M964.25,308.48v22.13H979V308.48Z"/><path d="M1125.08,358.69s-52.13,140.8-54,145.87l-57.72-145.87H996.53l66.1,164.17h16.67l61.94-164.17Z"/><path d="M1221.45,354.93a66.2,66.2,0,0,0-48.28,19.39c-15.84,16.13-24.72,41.35-24.34,69.28-.38,25.75,7.59,48.28,22.41,63.27,12.73,12.91,30.08,19.73,50.21,19.73,39.46,0,64.69-21.16,71.07-59.54l.3-1.64h-14.7l-.22,1.14c-5.58,29.41-26.66,46.87-56.41,46.87a52.12,52.12,0,0,1-38.64-15.5c-12.29-12.5-19.29-32-19.29-53.85v-.33h130.22v-1.36c0-2.05.14-4.11.14-6.14,0-25.1-7.45-46.72-21.28-61.19C1259.91,361.71,1242.71,354.93,1221.45,354.93Zm0,13.16c36.52,0,56.34,31.21,57.48,62.48H1163.77C1166.79,399.3,1187.28,368.09,1221.45,368.09Z"/><path d="M1334.91,391.26V358.69h-14.7V522.86h14.7V433.23c1.29-24.58,6.57-33.88,17.85-45.49a53.69,53.69,0,0,1,43.4-15.3l1.56.21V358h-1.33C1369.46,356.57,1343.67,371.1,1334.91,391.26Z"/><path d="M1475.36,431.87l-4.81-1c-24.47-5.21-47.58-10.09-47.58-33,0-21.91,23.29-29.67,45.08-29.67,17.14,0,45.92,5.14,46.3,39.73v1.38h14.71v-1.38c0-34.11-21.68-52.93-61-52.93-14,0-59.81,3.12-59.81,42.84,0,35.72,32.76,42.36,56.69,47.19l4.23.88c25.67,5.14,50,10,50,34.81,0,29.62-34.81,32.78-49.77,32.78-29.82,0-50.23-18-51.95-45.75v-1.31h-14.7v1.43c.91,36.28,26.46,58.81,66.67,58.81,15.15,0,64.52-3.33,64.52-46C1533.63,445.6,1507.24,437.8,1475.36,431.87Z"/><path d="M1563.8,358.69V522.87h14.73V358.69Z"/><path d="M1641.93,358.69V308.47h-14.7v50.22h-29.84v13.17h29.81V485.93c0,12.65,3.12,21.82,9.47,28,9.78,9.47,25.87,9.73,38.83,8.81h1.33V509.67h-1.45c-13.32.34-22.08-.45-27.38-5.56-4.11-4-6-10.68-6-21V371.86h41l62.55,148.69c-7.26,20.58-11.75,32.33-16.13,36.92-7.62,7.64-15.23,10-32.58,10h-1.44v13.14h1.44c17.93,0,29.4-.5,38.51-7.47,6.94-5.41,12.15-16.9,19.26-33.86l69.8-180.56h-16.5s-52.13,138.4-54.39,144.77c-2.55-6.32-59-144.77-59-144.77Z"/><path d="M1563.77,308.48v22.13h14.76V308.48Z"/><path d="M959.84,259.05c-65.24-1.33-120.08-51.42-118.41-120.54C843.12,84,886.9,22.21,966.54,24.45c55.45,1,117.6,42.69,116,119.32S1015.94,260.75,959.84,259.05Zm2.32-220.52c-49.74,0-84.4,36.64-84.4,98.15,0,73.5,43.73,106.87,85.08,106.87,49.75,0,82.76-38.23,82.76-98.81.66-64.83-33-106.18-83.44-106.18Z"/><path d="M1918.38,30.66V27.42h-65.17v3.24c12.9.85,16.46,3.38,16.46,21.72v79.56H1752.8V52.38c0-18.34,3.55-20.87,16.47-21.72V27.42H1704v3.24c12.88.85,16.47,3.38,16.47,21.72V231c0,18.34-3.59,20.93-16.47,21.75v3.21h65.19v-3.21c-12.92-.82-16.47-3.41-16.47-21.75V145.7h117V231c0,18.34-3.56,20.93-16.46,21.75v3.21h65.17v-3.21c-12.87-.82-16.46-3.41-16.46-21.75V52.38C1901.92,34,1905.51,31.51,1918.38,30.66Z"/><path d="M1099.82,27.42v3.24c12.56.67,16.15,2.05,16.15,15.25V231.14c0,18.34-3.57,20.94-16.47,21.76v3.21h49.21V252.9c-12.9-.82-16.49-3.42-16.49-21.76V64.73c0,3,127.27,157.89,154.75,191.26h5.26V45.91c0-13.2,3.55-14.7,16.11-15.25V27.42H1260v3.24c12.56.67,16.15,2.05,16.15,15.25V191.14L1143.33,27.42Z"/><path d="M1420.56,27.42H1416c-11.61,27.46-65.06,154-83.64,197.67-3.23,7.5-8.41,19.61-12.27,23.84a11.31,11.31,0,0,1-8.66,3.74v3.21h43.45v-3.21c-3.44,0-10.91,0-11.45-6.47a20.57,20.57,0,0,1,1.24-6.76c1.36-4.07,10.11-26.22,21.2-51.46h87c8.56,21.29,16.41,39.46,20,47.51a38.64,38.64,0,0,1,3.23,10.71c0,6.32-5.58,6.47-11.77,6.47v3.21h60.75v-3.21c-7.47-.5-9.85-2.38-15.28-14.71Zm-49,146.21c14.69-36.31,37.67-94.08,37.67-94.08s20.58,51.75,38,94.08Z"/><path d="M575.45,27.42v3.24c7,.38,11.16,1.05,13.52,3.82a17.92,17.92,0,0,1,1.79,3.38,13.87,13.87,0,0,1,.65,3.67c0,1.29.17,2.74.17,4.36V231.11c0,18.35-3.59,20.94-16.49,21.77v3.19h48.69v-3.19c-12.9-.83-16.47-3.42-16.47-21.77V72.49c0-2.93-.67-8.81-.67-8.81l2.93,8.81,78.95,182.65h4.8L773.93,67l2.35-7.74a46.75,46.75,0,0,0-.67,7.09V231c0,18.34-3.53,20.93-16.43,21.75v3.21h65.21v-3.21c-12.94-.82-16.5-3.41-16.5-21.75V45.74c0-13.2,3.56-14.7,16.15-15.27V27.25H773.43L700.48,199.68,626.54,27.42Z"/><path d="M1536.46,240.61c15.32,9.23,38,18.91,62.15,18.82h1.3c35.69-.53,73.26-26.94,73.26-68.53,0-45.06-31.57-55.46-63.5-71.95-32.34-15.79-45.71-23.88-45.71-45,0-14.44,8.81-35.61,37.31-35.61a51,51,0,0,1,24,5.88c23.2,12.91,24.35,31,27.34,42.72H1656L1654,36A145.5,145.5,0,0,0,1619.4,25.9,103.08,103.08,0,0,0,1606,25c-31.93,0-69.57,19.14-69.57,59.48,0,27.55,16.46,44.72,49.08,60.83s56.77,22.87,56.77,55.13c0,16.49-9.38,45-45.7,45a53.5,53.5,0,0,1-35.27-12.61c-21.53-20.34-21-36.46-22.67-42.49h-3.35l1,50.4"/><path d="M61.77,202.39a307,307,0,0,0,44.3,156.47,256.89,256.89,0,0,0,127.2,106.59A255.86,255.86,0,0,0,360.7,358.86,306.2,306.2,0,0,0,405,202.39V26.48H61.77Z"/><path d="M425.49,285.1l-1.64,5.66c-2,6.78-4.26,13.35-6.59,19.65l-14.69-13.29-1.83,5.35a311,311,0,0,1-30.55,65.16c-32.34,51.59-77.77,89.25-131.33,108.78l-5.5,2c-1.53-.62-5.33-2-5.33-2-53.53-19.6-99-57.22-131.24-108.78a300.11,300.11,0,0,1-30.58-65.16l-1.8-5.35-4.29,3.77-10.56,9.46C47.28,304.06,45,297.56,43,290.8l-1.64-5.65L37,289.09,0,322.41l.67,2.26A429.66,429.66,0,0,0,34.6,401.11l2.14,4,15.39-13.73c.58,1,1,2.15,1.7,3.11,38.22,61.22,92.5,105.85,156.8,129.38l22.64,8.31,22.93-8.31c64.31-23.53,118.37-68.21,156.68-129.38.62-1,1.21-2.14,1.8-3.14l15.14,13.7,2.29-4A416.7,416.7,0,0,0,466,324.61l.69-2.23Z"/><path class="cls-1" d="M376.16,103.78a15.14,15.14,0,0,1-1.62,6.82,10.58,10.58,0,0,1-2.49,3.43,16.58,16.58,0,0,0-4.09,2.54,12.12,12.12,0,0,1,1.5-8.56,15.3,15.3,0,0,1,6.44-6.33A18.81,18.81,0,0,1,376.16,103.78Z"/><path class="cls-1" d="M348.26,150.29a14.44,14.44,0,0,1,8.82,1.56,13.42,13.42,0,0,1-7.82,4.2,16,16,0,0,1-9.05-1.53A15.52,15.52,0,0,1,348.26,150.29Z"/><path class="cls-1" d="M333.5,154.9v-.67a14.71,14.71,0,0,1,2.2-7.85,14.52,14.52,0,0,1,6.65-5.47,3.75,3.75,0,0,1,0,.82,14.11,14.11,0,0,1-2.21,7.63A12.78,12.78,0,0,1,333.5,154.9Z"/><path class="cls-1" d="M344.88,139a16.15,16.15,0,0,1,4.28-4.7,17.11,17.11,0,0,1,.86,4,14,14,0,0,1-.74,4.57,13.41,13.41,0,0,1-3.64,5.31,16.93,16.93,0,0,0-1.85.66,1.55,1.55,0,0,1,0-.43A17.78,17.78,0,0,0,344.88,139Z"/><path class="cls-1" d="M351.32,131.68a15.53,15.53,0,0,1,3.14-5.64,14.42,14.42,0,0,1,2.12,7.23v1.17a13.09,13.09,0,0,1-2.18,5.88,14.1,14.1,0,0,0-1.82,1.12c-.58.42,0-.24-.14-.36A17.77,17.77,0,0,0,351.32,131.68Z"/><path class="cls-1" d="M355.84,123a20.11,20.11,0,0,1,1.48-6.09,14.29,14.29,0,0,1,4.11,7.68v1.93a12.59,12.59,0,0,1-.85,4.38,18,18,0,0,0-1.45,1.57,1.83,1.83,0,0,1-.26-.38A20.83,20.83,0,0,0,355.84,123Z"/><path class="cls-1" d="M358,113.51a13.79,13.79,0,0,1-.32-2.94,15.54,15.54,0,0,1,.58-3.3,14.63,14.63,0,0,1,5.88,6.45,14.83,14.83,0,0,1,.92,5.52c0,.28,0,.55,0,.83a13.11,13.11,0,0,0-1.18,1.93,4.06,4.06,0,0,1-.36-.26A18.63,18.63,0,0,0,358,113.51Z"/><path class="cls-1" d="M358.17,104a14.53,14.53,0,0,1-1.35-6.38,15.94,15.94,0,0,1,7.14,5,13.59,13.59,0,0,1,2.38,5.88c-.25.69-.47,1.4-.65,2.11h-.44A18.14,18.14,0,0,0,358.17,104Z"/><path class="cls-1" d="M365.05,99.28h-.57a18.66,18.66,0,0,0-8.08-4.76,15.57,15.57,0,0,1-2.74-5.71A14,14,0,0,1,361.51,92a13.18,13.18,0,0,1,3.66,5.33A15.07,15.07,0,0,0,365.05,99.28Z"/><path class="cls-1" d="M361.17,88.55a17.56,17.56,0,0,0-9.18-3,17.08,17.08,0,0,1-4.21-5.08A15.54,15.54,0,0,1,356.61,82a14.67,14.67,0,0,1,4.56,4.24,17.76,17.76,0,0,0,.38,2.16Z"/><path class="cls-1" d="M355.25,148.2a17.57,17.57,0,0,0-4.61-.7,17,17,0,0,1,6.35-5.59,15.41,15.41,0,0,1,9.11-.52,14.37,14.37,0,0,1-6.85,5.87A11.25,11.25,0,0,1,355.25,148.2Z"/><path class="cls-1" d="M363.48,138.23a17.36,17.36,0,0,0-4.76.39,14.45,14.45,0,0,1,14-9.74,15.24,15.24,0,0,1-5.29,7.59A15.9,15.9,0,0,1,363.48,138.23Z"/><path class="cls-1" d="M372.52,124a12.79,12.79,0,0,1-3.39,2.77,19.91,19.91,0,0,0-4.38,1.38A15.74,15.74,0,0,1,368,120a16.57,16.57,0,0,1,7.64-4.44A14.9,14.9,0,0,1,372.52,124Z"/><path class="cls-1" d="M374.07,93.81a14.61,14.61,0,0,1-.41,3.42,11.31,11.31,0,0,1-1.76,3.93,16.52,16.52,0,0,0-3.35,3.33,15.24,15.24,0,0,1-1.09-5.24,14.33,14.33,0,0,1,.52-3.52,15.81,15.81,0,0,1,5-7.66A16.85,16.85,0,0,1,374.07,93.81Z"/><path class="cls-1" d="M363.55,84.26a15.91,15.91,0,0,1,2.93-8.51,15.47,15.47,0,0,1,2.95,8.56,12.88,12.88,0,0,1-.8,4.21,20.46,20.46,0,0,0-2.44,3.93,14.77,14.77,0,0,1-2.71-8.14Z"/><path class="cls-1" d="M357.46,65.14a15.11,15.11,0,0,1,5,7.68,17.6,17.6,0,0,1,.38,3.14c0,.3,0,.61,0,.91a18,18,0,0,0-1.54,4.68,14.27,14.27,0,0,1-4.41-7.32,19.87,19.87,0,0,1-.29-3.27A18,18,0,0,1,357.46,65.14Z"/><path class="cls-1" d="M355.78,78.7h-.44a18.39,18.39,0,0,0-9.73-.6,17.2,17.2,0,0,1-5.18-3.9,15.39,15.39,0,0,1,8.83-.65,13.47,13.47,0,0,1,5.61,2.94A21.11,21.11,0,0,0,355.78,78.7Z"/><path class="cls-1" d="M346.43,57a13.85,13.85,0,0,1,7.85,10.19,21.64,21.64,0,0,0-.41,4.89,16.35,16.35,0,0,1-6.26-6.12,15.4,15.4,0,0,1-1.47-6.65A17.78,17.78,0,0,1,346.43,57Z"/><path class="cls-1" d="M343.11,62.82l.91.82A16.91,16.91,0,0,0,345.26,67a17.74,17.74,0,0,0,2.14,3.16,15.32,15.32,0,0,1-7.76-2.62,15.93,15.93,0,0,1-5.11-7.47A14.76,14.76,0,0,1,343.11,62.82Z"/><path class="cls-1" d="M302.36,128.42a3.37,3.37,0,0,1,3.24,3.41,3,3,0,0,1-.39,1.38c-.29.61-.5,1.32.79,1.32h4.62V76.22a58.69,58.69,0,0,1,5.21-26.69l1.33-2.59,1.31,2.59a61.36,61.36,0,0,1,5,26.69v58.31h4.57c1.31,0,1.07-.71.78-1.32a3.37,3.37,0,0,1-.36-1.38,3.45,3.45,0,0,1,3.44-3.41h0a3.52,3.52,0,0,1,3.45,3.52c0,2.41-1.85,4.88-6.16,4.88h-7.59a32.45,32.45,0,0,1,1.73,11.09,32,32,0,0,1-2.49,13.18,41.7,41.7,0,0,0,14-4.5l.38-.24,1.06,2.5L336,159a43.34,43.34,0,0,1-11.56,3.91l-5.24,1a2.91,2.91,0,0,1,.92,2.24h0a2.94,2.94,0,0,1-2.94,2.93H317a2.94,2.94,0,0,1-2.23-5.32l-5.62-1a42.4,42.4,0,0,1-11.14-3.9l-.29-.17,1.08-2.52.36.24A42.6,42.6,0,0,0,313.39,161a28.25,28.25,0,0,1-2.73-13.23,32.08,32.08,0,0,1,1.73-11.08h-7.58c-4.07,0-5.88-2.53-5.88-4.88A3.55,3.55,0,0,1,302.36,128.42Z"/><path class="cls-1" d="M290.39,148.41a1.69,1.69,0,0,1,0,.45,11,11,0,0,0-1.88-.66,12.09,12.09,0,0,1-3.38-5.35,14.81,14.81,0,0,1-.73-4.53,18.68,18.68,0,0,1,.83-4,19.23,19.23,0,0,1,4.11,4.7A17.32,17.32,0,0,0,290.39,148.41Z"/><path class="cls-1" d="M282.37,85.76A17.74,17.74,0,0,0,273,88.69h-.36a15.54,15.54,0,0,0,.41-2.14,13.38,13.38,0,0,1,4.73-4.24,15.21,15.21,0,0,1,8.52-1.5A14.87,14.87,0,0,1,282.37,85.76Z"/><path class="cls-1" d="M282,141.23a2.28,2.28,0,0,1-.18.35c-.58-.4-1.19-.79-1.82-1.14a13.35,13.35,0,0,1-2.21-5.88v-1.14a15.18,15.18,0,0,1,2.12-7.24,14.64,14.64,0,0,1,3.17,5.65A17.09,17.09,0,0,0,282,141.23Z"/><path class="cls-1" d="M272.69,124.54a14.83,14.83,0,0,1,4.09-7.68,14.45,14.45,0,0,1,1.71,6.09,18.49,18.49,0,0,0-3.35,9.09l-.26.38c-.48-.57-1-1.07-1.48-1.57a13.57,13.57,0,0,1-.85-4.38A15.52,15.52,0,0,1,272.69,124.54Z"/><path class="cls-1" d="M270.69,121.59l-.35.27c-.32-.67-.72-1.32-1.12-2a3.39,3.39,0,0,1,0-.78,13.44,13.44,0,0,1,6.8-11.76,19.32,19.32,0,0,1,.55,3.29,13.33,13.33,0,0,1-.34,2.94A19.37,19.37,0,0,0,270.69,121.59Z"/><path class="cls-1" d="M272.78,92a14.3,14.3,0,0,1,8.09-3.23,16,16,0,0,1-2.94,5.68,19,19,0,0,0-8.35,4.79,1.93,1.93,0,0,0-.48,0v-2A12.11,12.11,0,0,1,272.78,92Z"/><path class="cls-1" d="M270.17,102.66a15.46,15.46,0,0,1,7.2-5,14.09,14.09,0,0,1-1.44,6.31,18.94,18.94,0,0,0-7.09,6.56l-.38.17a17.35,17.35,0,0,0-.58-2.11A12.36,12.36,0,0,1,270.17,102.66Z"/><path class="cls-1" d="M269.38,128.06a16.94,16.94,0,0,0-4.12-1.38,13.31,13.31,0,0,1-3.44-2.76,15.14,15.14,0,0,1-3.41-8.39,15.83,15.83,0,0,1,7.9,4.45A16.68,16.68,0,0,1,269.38,128.06Z"/><path class="cls-1" d="M270.26,131.62a15.41,15.41,0,0,1,5.14,7,17.94,17.94,0,0,0-4.79-.38,13.44,13.44,0,0,1-3.65-1.78,15.26,15.26,0,0,1-5.24-7.59A14.79,14.79,0,0,1,270.26,131.62Z"/><path class="cls-1" d="M277.11,141.91a16,16,0,0,1,6.62,5.59,17.58,17.58,0,0,0-4.62.7,12.75,12.75,0,0,1-4.27-1,14,14,0,0,1-6.76-5.89A15.31,15.31,0,0,1,277.11,141.91Z"/><path class="cls-1" d="M285.92,150.29a15.56,15.56,0,0,1,8,4.23,15.76,15.76,0,0,1-8.83,1.53,15.07,15.07,0,0,1-8-4.2A15.27,15.27,0,0,1,285.92,150.29Z"/><path class="cls-1" d="M293.84,149.36a14.2,14.2,0,0,1-2.14-7.63v-.82a15.51,15.51,0,0,1,6.93,5.47,14.78,14.78,0,0,1,2.18,7.85v.67A14,14,0,0,1,293.84,149.36Z"/><path class="cls-1" d="M288.87,67a17.45,17.45,0,0,0,1.21-3.38c.29-.26.62-.55,1-.82a15.43,15.43,0,0,1,8.82-2.71,15,15,0,0,1-5.38,7.47,15.39,15.39,0,0,1-7.76,2.62,18.76,18.76,0,0,0,2.15-3.14Z"/><path class="cls-1" d="M281.35,63.38A15.39,15.39,0,0,1,287.68,57a13.09,13.09,0,0,1-1.22,8.82,14.09,14.09,0,0,1-5.89,6.12,17.71,17.71,0,0,0-.41-4.88A14,14,0,0,1,281.35,63.38Z"/><path class="cls-1" d="M279.43,76.7a13.21,13.21,0,0,1,5.61-3,14.72,14.72,0,0,1,8.61.66,17.16,17.16,0,0,1-5,3.81,17.62,17.62,0,0,0-9.49.6h-.42A17.74,17.74,0,0,0,279.43,76.7Z"/><path class="cls-1" d="M271.72,72.82a14.77,14.77,0,0,1,4.92-7.68A16.29,16.29,0,0,1,277.87,71a12.37,12.37,0,0,1-.38,3.26A15.39,15.39,0,0,1,273,81.6a18.6,18.6,0,0,0-1.56-4.67V76A15,15,0,0,1,271.72,72.82Z"/><path class="cls-1" d="M264.88,84.31a16.32,16.32,0,0,1,2.79-8.56,16.09,16.09,0,0,1,2.94,8.51A15.68,15.68,0,0,1,268,92.4a15.64,15.64,0,0,0-2.3-4,12.26,12.26,0,0,1-.79-4.19Z"/><path class="cls-1" d="M261.44,88.14a15.68,15.68,0,0,1,5,7.64,14,14,0,0,1,.42,3.47,15.7,15.7,0,0,1-1.07,5.24,15.21,15.21,0,0,0-3.37-3.33,12.77,12.77,0,0,1-1.77-3.93,13.65,13.65,0,0,1-.44-3.42A16.68,16.68,0,0,1,261.44,88.14Z"/><path class="cls-1" d="M258.27,101.61a15,15,0,0,1,6.66,6.31,14.46,14.46,0,0,1,1.65,6.85,5.72,5.72,0,0,1-.17,1.68,17,17,0,0,0-4.12-2.5,14.12,14.12,0,0,1-2.62-3.44,13.8,13.8,0,0,1-1.68-6.83A12.12,12.12,0,0,1,258.27,101.61Z"/><path d="M320.77,76.22a59.87,59.87,0,0,0-3.61-22V131h3.61Z"/><path class="cls-1" d="M176.31,139a59.79,59.79,0,0,0,19.06,2.72V61.18a63.92,63.92,0,0,1-20-3,58.14,58.14,0,0,0-15.76-2.49A18.68,18.68,0,0,0,147,59.88v79.94a23.71,23.71,0,0,1,12.47-3.38A61.58,61.58,0,0,1,176.31,139Z"/><path class="cls-1" d="M130.81,136.39a23.18,23.18,0,0,1,12.43,3.4V59.94a18.22,18.22,0,0,0-12.59-4.15,58,58,0,0,0-15.75,2.5A63.6,63.6,0,0,1,95,61.23v80.56a59.61,59.61,0,0,0,19-2.73A61,61,0,0,1,130.81,136.39Z"/><path class="cls-1" d="M207.45,62.85h-7l.44,1.79a1.32,1.32,0,0,1,0,.56v82.92h-51.4c-.94,1.58-2.05,1.84-4.4,1.84s-3.16-.26-4.06-1.84H89.32V65.2a1.94,1.94,0,0,1,0-.59l.43-1.76h-7v91.67h55.39a7.57,7.57,0,0,0,6.78,4,7.71,7.71,0,0,0,7-4h55.48Z"/><path d="M159.47,75.15a28.42,28.42,0,0,0-7.76,1.26v4.11a23.94,23.94,0,0,1,7.91-1.47,61.26,61.26,0,0,1,15.67,2.62,83.13,83.13,0,0,0,15,2.93V80.7a79.76,79.76,0,0,1-14-2.94A63.72,63.72,0,0,0,159.47,75.15Z"/><path d="M159.47,121.88a29.59,29.59,0,0,0-7.76,1.24v4.16a22.21,22.21,0,0,1,7.91-1.45,58.18,58.18,0,0,1,15.67,2.52,81.47,81.47,0,0,0,15,3v-3.76a74.52,74.52,0,0,1-14-2.78A64.73,64.73,0,0,0,159.47,121.88Z"/><path d="M159.47,112.51a30.43,30.43,0,0,0-7.76,1.23v4.15a22.67,22.67,0,0,1,7.91-1.46A61.29,61.29,0,0,1,175.35,119a81,81,0,0,0,14.93,3v-3.88a82.5,82.5,0,0,1-14-2.8A60.92,60.92,0,0,0,159.47,112.51Z"/><path d="M159.47,84.5a28.76,28.76,0,0,0-7.76,1.22v4.12a24.72,24.72,0,0,1,7.91-1.46A59.82,59.82,0,0,1,175.26,91a83.47,83.47,0,0,0,15,2.94V90.14a80.08,80.08,0,0,1-14.05-2.76A59.77,59.77,0,0,0,159.47,84.5Z"/><path d="M159.47,103.25a26.88,26.88,0,0,0-7.76,1.12v4.11a22.24,22.24,0,0,1,7.87-1.35,58.85,58.85,0,0,1,15.65,2.59,87.3,87.3,0,0,0,15.05,2.79v-3.76A83.44,83.44,0,0,1,176.17,106,61.86,61.86,0,0,0,159.47,103.25Z"/><path d="M176.28,68.52a63.36,63.36,0,0,0-16.81-2.65A30,30,0,0,0,151.71,67v4.15a23.44,23.44,0,0,1,7.91-1.47,58.26,58.26,0,0,1,15.67,2.59,75.86,75.86,0,0,0,15,2.93v-3.9A76.15,76.15,0,0,1,176.28,68.52Z"/><path d="M114,115.31a89.07,89.07,0,0,1-14.09,2.76v3.79A86.6,86.6,0,0,0,115,118.92a59.46,59.46,0,0,1,15.66-2.59,22.06,22.06,0,0,1,7.95,1.48v-4.16a30.8,30.8,0,0,0-7.79-1.23A60.23,60.23,0,0,0,114,115.31Z"/><path d="M114.13,106a89.28,89.28,0,0,1-14.2,2.94v3.73a90.48,90.48,0,0,0,15.14-2.79,58.54,58.54,0,0,1,15.58-2.59,22,22,0,0,1,7.95,1.38v-4.11a27.46,27.46,0,0,0-7.79-1.15A61.62,61.62,0,0,0,114.13,106Z"/><path d="M159.47,93.83a30.89,30.89,0,0,0-7.76,1.24v4.12a25.07,25.07,0,0,1,7.91-1.44,57.6,57.6,0,0,1,15.73,2.65,90.21,90.21,0,0,0,14.93,2.76V99.4a78.88,78.88,0,0,1-14-3A62.13,62.13,0,0,0,159.47,93.83Z"/><path d="M114,124.66a78.42,78.42,0,0,1-14.11,2.76v3.79A85.68,85.68,0,0,0,115,128.27a57.41,57.41,0,0,1,15.66-2.53,22.26,22.26,0,0,1,7.95,1.42V123a29.47,29.47,0,0,0-7.79-1.24A62.85,62.85,0,0,0,114,124.66Z"/><path d="M114,68.52a76.05,76.05,0,0,1-14.09,2.94v3.69a78.41,78.41,0,0,0,15.2-3,57.5,57.5,0,0,1,15.68-2.59,23.59,23.59,0,0,1,7.93,1.47V67A27.79,27.79,0,0,0,131,65.8,61.24,61.24,0,0,0,114,68.52Z"/><path d="M114,77.91a82.6,82.6,0,0,1-14.09,2.93v3.8A83,83,0,0,0,115,81.7a59.5,59.5,0,0,1,15.66-2.62,23.66,23.66,0,0,1,7.95,1.47V76.43a29.49,29.49,0,0,0-7.79-1.26A62.91,62.91,0,0,0,114,77.91Z"/><path d="M114,96.61a82.6,82.6,0,0,1-14.09,2.93v3.74A87.55,87.55,0,0,0,115,100.51a57.5,57.5,0,0,1,15.66-2.61,24.54,24.54,0,0,1,7.95,1.44V95.25A29.54,29.54,0,0,0,130.86,94,60.94,60.94,0,0,0,114,96.61Z"/><path d="M114.13,87.26A82.68,82.68,0,0,1,99.93,90v3.79a83.88,83.88,0,0,0,15.14-2.94,58.49,58.49,0,0,1,15.58-2.61,26.25,26.25,0,0,1,7.95,1.43v-4a29.08,29.08,0,0,0-7.74-1.22A58.72,58.72,0,0,0,114.13,87.26Z"/><path class="cls-1" d="M185.87,347.84l-.17,11.82-9.32-7.29-9.59,7.29-.24-11.82-11.42-2.94,9.07-7.53-4.85-10.85,11.58,2.42,5.45-10.59,5.17,10.59,11.82-2.42-5.05,10.85,9.08,7.53Z"/><path class="cls-1" d="M250.64,431.3l-11.76-4.43-5.23,11.52-5.12-11.52-11.9,4.43,4.43-11.85-11.4-5.4,11.4-5.17-4.43-12,11.9,4.46,5.12-11.61,5.23,11.61,11.76-4.46-4.26,12,11.32,5.24-11.32,5.33Z"/><path class="cls-1" d="M216.3,272.34l11.76,2.47,5.21-10.61,5.44,10.61,11.67-2.47-4.91,10.78,9.09,7.66-11.5,2.85-.23,11.9-9.56-7.26L224,305.53l-.21-11.9-11.49-2.85,9.11-7.66Z"/><path class="cls-1" d="M263.34,368.39l-9.26-4.59-9,4.59,1.67-10.14L239.45,351l10.11-1.61,4.52-9.06,4.76,9.06,10,1.61-7.05,7.21Z"/><path class="cls-1" d="M300.77,331.13,290.22,331l-5,9.06L280.11,331l-10.56.14,5.44-9-5.44-9,10.56.18,5.12-9.11,5,9.11,10.55-.18-5.41,9Z"/><path class="cls-1" d="M233.27,220.45,364.1,337.82a295.77,295.77,0,0,0,19.65-47.61L233.27,155,83.09,290.21a286,286,0,0,0,19.63,47.61Z"/><path class="cls-1" d="M436.22,377.41l7.06-43.68-20.22-18.18a180,180,0,0,0,5.88-17.32c6.08,5.47,26.46,23.82,29.4,26.48A386,386,0,0,1,436.22,377.41Z"/><path class="cls-1" d="M426.44,392c-2-1.79-4.79-4.33-8-7.14v-.15c4.59-7.85,9-15.82,12.82-24.14Z"/><path class="cls-1" d="M8.52,324.64c3-2.59,23.53-21,29.41-26.46,1.85,6,3.88,11.76,5.87,17.26L23.51,333.66l7,43.58A382,382,0,0,1,8.52,324.64Z"/><path class="cls-1" d="M40.24,392l-4.81-31.52c3.85,8.32,8.26,16.38,12.94,24.31Z"/><path class="cls-1" d="M406.74,390.64c-37.52,59.75-90.41,103.45-153.1,126.43l-20.37,7.41c-2-.84-20.11-7.43-20.11-7.43C150.51,494.11,97.58,450.43,60,390.62a339.15,339.15,0,0,1-27.46-55c3.24-2.93,22.73-20.58,28.53-25.69a311.2,311.2,0,0,0,29.39,61.74c33.28,52.93,79.82,91.7,135,111.87l7.88,2.95,8.11-2.95c55.16-20.17,101.76-58.79,134.86-111.87a304.82,304.82,0,0,0,29.41-61.74c5.59,5.18,25.22,22.81,28.52,25.69A343.76,343.76,0,0,1,406.74,390.64Z"/><path d="M72.07,371l5.87-6.58-.5-2c-1.15-1.08-2.26-2.23-3.3-3.42-6.14,1.12-15.87,2.65-20.22,2.94l-1.15-1.29-1.14.65c.62,1,1.14,2,1.7,2.93s1.23,2.45,1.88,3.66l1.11-.69-.5-1.76L62.24,364l3.43,5.88a51.19,51.19,0,0,1-4.61,4.82l-1.26-1.47-1.2.71c.84,1.47,1.74,2.93,2.58,4.43s1.59,2.95,2.35,4.35l1.24-.69-.59-1.76C65.39,378.72,69.24,374.21,72.07,371ZM65,363.47l8.19-1.69L67.48,368Z"/><path d="M101.29,401.76l1.11-.85c-.76-1-1.59-2-2.32-2.94s-1.48-2.09-2.17-3.14l-1.21.81.88,1.83c-2.93,2.45-10.71,8.23-10.71,8.23l6.3-17.34c-.73-1-1.44-1.86-2.14-2.95s-1.24-1.91-1.86-2.93l-1.09.81.79,1.83a43,43,0,0,1-4.67,3.64l-5.14,3.71A52.44,52.44,0,0,1,74,395.62l-1.44-1.41-1.08.79c.76,1,1.5,2,2.26,3.11s1.38,2.09,2.14,3.15l1.12-.82-.88-1.85C79,396.14,83.53,393,87,390.38c-2.23,5.88-4.3,11.76-6.59,17.65A23.65,23.65,0,0,1,82,410a12.65,12.65,0,0,1,1.31,1.91c1.67-1.36,3.88-2.95,6.37-4.88l5-3.62c1.88-1.33,3.45-2.33,5.07-3.26Z"/><path d="M102.67,418.84a10.73,10.73,0,0,0-.5,15.62,14.7,14.7,0,0,0,10.64,5.12l.38-2.57a9.6,9.6,0,0,1-6.24-2.94,7.75,7.75,0,0,1,.48-11.46,6.78,6.78,0,0,1,10.18.27,11.33,11.33,0,0,1,2.47,4.9l-1.16,1.36,1,1.17a15.32,15.32,0,0,1,4.62-2.7A20.78,20.78,0,0,0,120.3,421C115.13,415.22,107.73,414.1,102.67,418.84Z"/><path d="M144.71,444c-5.88-5.05-12.82-4.24-16.87.59-4.47,5.52-3.42,11.75,2.5,16.7s12.9,4.23,16.82-.62C151.89,455.24,150.8,449,144.71,444Zm-2,12.91c-2.94,3.59-7.26,4.67-10.47,2.05s-2.93-7,.18-10.55,7.29-4.73,10.47-2.06S145.59,453.33,142.74,457Z"/><path d="M175.85,466.8c-1.26-.8-2.62-1.59-3.92-2.35s-2.67-1.53-3.93-2.33-2.18-1.44-3.26-2.15l-.78,1.21,1.52,1.39a53.4,53.4,0,0,1-2.95,5.2l-2.95,5.32c-1.23,1.85-2.28,3.35-3.46,4.85l-1.89-.74-.72,1.21,4.34,2.62c1.42.85,2.8,1.83,4.09,2.73l.71-1.18-1.36-1.34a32.84,32.84,0,0,1,3-5.27l1.08-1.67,1.38.88c.35,3.23.68,8.68.92,12.56a53.67,53.67,0,0,1,5.88,3.16l.76-1.17-.62-.85c-.35-1.5-1.38-9.26-1.71-11.42a5.9,5.9,0,0,0,7.66-1.81C180.9,473.15,180.94,470,175.85,466.8Zm-1.54,5.88c-1.38,2.14-3.52,2.05-6.17.41a10,10,0,0,1-1.59-1.17l.95-1.53a37.33,37.33,0,0,1,2.5-3.66,17.65,17.65,0,0,1,2.64,1.42C174.88,469.54,175.35,471,174.31,472.68Z"/><path d="M207.83,483.82l-1.61-1.32a43.38,43.38,0,0,1-4.67-.8A202,202,0,0,1,187,496.11l-1.79-.38-.56,1.29c1.09.47,2.2.88,3.26,1.38l3.77,1.76.62-1.26-1.54-1.08,4.3-5,6.19,2.95a58.77,58.77,0,0,1-.84,6.59l-1.89-.45-.55,1.24,4.78,2.06,4.45,2.12.56-1.27-1.47-1.11c0-2,.29-7.89.7-12.18Zm-6.31,9.23-4.8-2.17,5.62-6.26Z"/><path d="M269.9,500.61a43.82,43.82,0,0,1-2.52-5.38l-2.47-5.68c-.82-1.81-1.55-3.67-2.19-5.55l1.71-1.14-.59-1.31c-1.58.74-3.11,1.48-4.64,2.1s-3.12,1.28-4.71,2l.59,1.24,2-.45c.91,1.62,1.74,3.27,2.69,5.38l2.49,5.71c.94,2.06,1.58,3.76,2.2,5.54l-1.67,1.14.55,1.26c1.59-.71,3.09-1.44,4.54-2.11s2.93-1.27,4.62-1.91l-.6-1.3Z"/><path d="M309,479.35a56.91,56.91,0,0,1-3.34-5L302.72,469a52.09,52.09,0,0,1-3-5.19l1.56-1.36-.76-1.24c-1.26.86-2.54,1.67-3.82,2.41l-3.94,2.24c.73,2.94,2.94,13.55,3.34,15.82-2.43-1.69-10.28-8.42-12.28-10.38l-3.8,2.35-3.93,2.17.73,1.18,1.77-.58,1.55,2.52c1.47,2.53,6.18,10.88,7.32,13.23L286,493.5l.71,1.17,3.24-2c1.11-.67,2.26-1.29,3.4-1.91l-.73-1.21-1.91.74a46.58,46.58,0,0,1-3.35-5l-1.77-2.94c-1.47-2.65-2.56-4.53-3.09-5.47,7.85,6.65,12.18,10.12,14.3,12l2.93-1.73L296,468.73c.61.88,1.8,2.78,3.39,5.42l1.84,2.93a34.08,34.08,0,0,1,2.68,5.33l-1.3,1.29.62,1.23c1.27-.88,2.71-1.76,4.21-2.66s2.94-1.69,4.44-2.57l-.71-1.17Z"/><path d="M330.08,463.74c-1.29-1.39-2.52-2.74-4-4.53l-2.93-3.5c-1.21-1.44-2.57-3.4-3.66-5a11.8,11.8,0,0,1,1.68-1.92,3.71,3.71,0,0,1,5.7.24,3.58,3.58,0,0,1,1.23,2.72,3.64,3.64,0,0,1-1.52,3,8.7,8.7,0,0,1-1.41.91l1.05,2.66a16.17,16.17,0,0,0,2.76-1.84c4.69-3.73,4.8-8.44,2.24-11.58s-5.88-3.21-9.69,0a33.59,33.59,0,0,1-3.18,2.79,45.12,45.12,0,0,1-3.59,2.94c-1,.74-2.24,1.7-3.56,2.79l.91,1.09,1.76-1c1.33,1.33,2.57,2.71,4,4.44l3.7,4.86c1.47,1.78,2.56,3.26,3.61,4.78l-1.31,1.55.85,1.12c1.32-1.14,2.58-2.22,3.94-3.29s2.64-2,4.68-3.59l-.95-1.07Z"/><path d="M364.63,431.49a110.81,110.81,0,0,1-11.17-4.76l-8.14-3.89-1.77,1.09c-.74,1.3-1.46,2.68-2.38,4.11,2.94,5.65,7.23,14.38,8.82,18.65l-1,1.46,1,1c.76-.82,1.56-1.74,2.42-2.53s2-2,2.93-3l-1-1-1.55,1.09L349.55,438l4.91-5a59.7,59.7,0,0,1,5.88,2.94l-1,1.62,1,1,3.52-3.8,3.56-3.43-1-1Zm-16.37,4.2-4-7.43L352,432Z"/><path d="M388.89,401.49c-1.47.19-9.47.5-11.75.6a5.92,5.92,0,0,0-1.16-7.86c-2.15-1.76-5.26-2.05-9,2.74-.91,1.24-1.86,2.5-2.74,3.73l-2.67,3.59-2.47,2.94,1.14.83,1.5-1.36c1.62,1,3.12,2,5,3.45l5,3.76a47.57,47.57,0,0,1,4.45,3.85l-1,1.82,1.17.82c1-1.35,2-2.73,2.95-4.09s2.12-2.59,3.17-3.94l-1.15-.82-1.47,1.32a55.48,55.48,0,0,1-5-3.38l-1.38-1.24.91-1.31c3.18,0,8.82.14,12.68.29a42.7,42.7,0,0,1,3.71-5.53l-1.12-.82Zm-16.17,3.69a13.82,13.82,0,0,1-1.36,1.4l-1.43-1.05c-1.45-1.06-2.68-2.12-3.45-2.73a24.82,24.82,0,0,1,1.65-2.48c1.59-2.06,3.18-2.44,4.68-1.23S374.52,402.76,372.72,405.18Z"/><path d="M402,363.28c-6.35-3.71-12.11-1.65-16.11,5.11s-2.05,13.38,3.38,16.56c6,3.64,12.09,1.62,16.11-5.16S407.5,366.21,402,363.28Zm.64,15c-2.07,3.56-6.4,4-10.35,1.52s-5.87-6.31-3.76-9.87,6.3-3.88,10.39-1.53,5.88,6.24,3.72,9.73Z"/><path d="M233.27,497.87a4.8,4.8,0,0,0-4.59,4.79,4.9,4.9,0,0,0,4.59,5,5,5,0,0,0,5-5A5,5,0,0,0,233.27,497.87Z"/><path d="M55.1,345.63a4.91,4.91,0,0,0,4.81-4.79,4.79,4.79,0,1,0-9.58,0A4.87,4.87,0,0,0,55.1,345.63Z"/><path d="M412.47,345.63a4.92,4.92,0,0,0,4.88-4.79v0a4.82,4.82,0,1,0-4.88,4.81Z"/><text class="cls-2" transform="translate(2300.86 154.84)">MO<tspan class="cls-3" x="238.19" y="0">N</tspan><tspan class="cls-4" x="348.22" y="0">ASH</tspan><tspan class="cls-5"><tspan x="0" y="185.63">DSAI AND</tspan><tspan x="0" y="371.26">DFI</tspan></tspan></text><line class="cls-6" x1="2108.35" y1="24.34" x2="2108.35" y2="532.21"/></g></g></svg>