<svg xmlns="http://www.w3.org/2000/svg" viewBox="0 0 3033.31 690.14"><defs><style>.cls-1{fill:#fff;}.cls-2{fill:#006dae;stroke:#006dae;}.cls-2,.cls-3,.cls-4{stroke-miterlimit:10;}.cls-2,.cls-3{stroke-width:2px;}.cls-3{stroke:#000;}.cls-4{fill:none;stroke:#231f20;stroke-width:5px;}</style></defs><g id="Layer_2" data-name="Layer 2"><g id="Layer_1-2" data-name="Layer 1"><g id="Monash"><path d="M744.83,272.45V408.17c0,55.86-22.91,81.74-72.07,81.74-57,0-68.92-44.46-68.92-81.74V272.45H587.23V408.17c0,64,28.79,96.5,85.53,96.5,58.8,0,88.68-32.49,88.68-96.5V272.45Z"/><path d="M869,331.41c-25.48,0-47.59,13.7-57,34.45V335.17H797.27V499.34H812v-88.7c0-40.14,22.26-66.07,56.65-66.07,44.44,0,44.44,38.64,44.44,51.34V499.34h14.7V398.12C927.79,379.85,927.79,331.41,869,331.41Z"/><path d="M964.25,335.17V499.35H979V335.17Z"/><path d="M964.25,285v22.13H979V285Z"/><path d="M1125.08,335.17S1073,476,1071.1,481l-57.72-145.87H996.53l66.1,164.17h16.67l61.94-164.17Z"/><path d="M1221.45,331.41a66.2,66.2,0,0,0-48.28,19.39c-15.84,16.13-24.72,41.35-24.34,69.28-.38,25.75,7.59,48.28,22.41,63.27,12.73,12.91,30.08,19.73,50.21,19.73,39.46,0,64.69-21.16,71.07-59.54l.3-1.64h-14.7l-.22,1.14c-5.58,29.41-26.66,46.87-56.41,46.87a52.12,52.12,0,0,1-38.64-15.5c-12.29-12.5-19.29-32-19.29-53.85v-.33h130.22v-1.36c0-2.05.14-4.11.14-6.14,0-25.1-7.45-46.72-21.28-61.19C1259.91,338.19,1242.71,331.41,1221.45,331.41Zm0,13.16c36.52,0,56.34,31.21,57.48,62.48H1163.77C1166.79,375.78,1187.28,344.57,1221.45,344.57Z"/><path d="M1334.91,367.74V335.17h-14.7V499.34h14.7V409.71c1.29-24.58,6.57-33.88,17.85-45.49a53.69,53.69,0,0,1,43.4-15.3l1.56.21v-14.7h-1.33C1369.46,333.05,1343.67,347.58,1334.91,367.74Z"/><path d="M1475.36,408.35l-4.81-1c-24.47-5.21-47.58-10.09-47.58-33.05,0-21.91,23.29-29.67,45.08-29.67,17.14,0,45.92,5.14,46.3,39.73v1.38h14.71v-1.38c0-34.11-21.68-52.93-61-52.93-14,0-59.81,3.12-59.81,42.84,0,35.72,32.76,42.36,56.69,47.19l4.23.88c25.67,5.14,50,10,50,34.81,0,29.62-34.81,32.78-49.77,32.78-29.82,0-50.23-18-51.95-45.75V442.9h-14.7v1.43c.91,36.28,26.46,58.81,66.67,58.81,15.15,0,64.52-3.33,64.52-46C1533.63,422.08,1507.24,414.28,1475.36,408.35Z"/><path d="M1563.8,335.17V499.35h14.73V335.17Z"/><path d="M1641.93,335.17V285h-14.7v50.22h-29.84v13.17h29.81V462.41c0,12.65,3.12,21.82,9.47,28,9.78,9.47,25.87,9.73,38.83,8.81h1.33V486.15h-1.45c-13.32.34-22.08-.45-27.38-5.56-4.11-4-6-10.68-6-21V348.34h41L1745.5,497c-7.26,20.58-11.75,32.33-16.13,36.92-7.62,7.64-15.23,10-32.58,10h-1.44v13.14h1.44c17.93,0,29.4-.5,38.51-7.47,6.94-5.41,12.15-16.9,19.26-33.86l69.8-180.56h-16.5s-52.13,138.4-54.39,144.77c-2.55-6.32-59-144.77-59-144.77Z"/><path d="M1563.77,285v22.13h14.76V285Z"/><path d="M959.84,235.53C894.6,234.2,839.76,184.11,841.43,115,843.12,60.44,886.9-1.31,966.54.93c55.45,1,117.6,42.69,116,119.32S1015.94,237.23,959.84,235.53ZM962.16,15c-49.74,0-84.4,36.64-84.4,98.15,0,73.5,43.73,106.87,85.08,106.87,49.75,0,82.76-38.23,82.76-98.81.66-64.83-33-106.18-83.44-106.18Z"/><path d="M1918.38,7.14V3.9h-65.17V7.14c12.9.85,16.46,3.38,16.46,21.72v79.56H1752.8V28.86c0-18.34,3.55-20.87,16.47-21.72V3.9H1704V7.14c12.88.85,16.47,3.38,16.47,21.72V207.45c0,18.34-3.59,20.93-16.47,21.75v3.21h65.19V229.2c-12.92-.82-16.47-3.41-16.47-21.75V122.18h117v85.27c0,18.34-3.56,20.93-16.46,21.75v3.21h65.17V229.2c-12.87-.82-16.46-3.41-16.46-21.75V28.86C1901.92,10.45,1905.51,8,1918.38,7.14Z"/><path d="M1099.82,3.9V7.14c12.56.67,16.15,2.05,16.15,15.25V207.62c0,18.34-3.57,20.94-16.47,21.76v3.21h49.21v-3.21c-12.9-.82-16.49-3.42-16.49-21.76V41.21c0,2.95,127.27,157.89,154.75,191.26h5.26V22.39c0-13.2,3.55-14.7,16.11-15.25V3.9H1260V7.14c12.56.67,16.15,2.05,16.15,15.25V167.62L1143.33,3.9Z"/><path d="M1420.56,3.9H1416c-11.61,27.46-65.06,154-83.64,197.67-3.23,7.5-8.41,19.61-12.27,23.84a11.31,11.31,0,0,1-8.66,3.74v3.21h43.45v-3.21c-3.44,0-10.91,0-11.45-6.47a20.57,20.57,0,0,1,1.24-6.76c1.36-4.07,10.11-26.22,21.2-51.46h87c8.56,21.29,16.41,39.46,20,47.51a38.64,38.64,0,0,1,3.23,10.71c0,6.32-5.58,6.47-11.77,6.47v3.21h60.75v-3.21c-7.47-.5-9.85-2.38-15.28-14.71Zm-49,146.21C1386.21,113.8,1409.19,56,1409.19,56s20.58,51.75,38,94.08Z"/><path d="M575.45,3.9V7.14c7,.38,11.16,1,13.52,3.82a17.92,17.92,0,0,1,1.79,3.38,13.87,13.87,0,0,1,.65,3.67c0,1.29.17,2.74.17,4.36V207.59c0,18.35-3.59,20.94-16.49,21.77v3.19h48.69v-3.19c-12.9-.83-16.47-3.42-16.47-21.77V49c0-2.93-.67-8.81-.67-8.81L609.57,49l78.95,182.65h4.8L773.93,43.45l2.35-7.74a46.75,46.75,0,0,0-.67,7.09V207.45c0,18.34-3.53,20.93-16.43,21.75v3.21h65.21V229.2c-12.94-.82-16.5-3.41-16.5-21.75V22.22C807.89,9,811.45,7.52,824,7V3.73H773.43L700.48,176.16,626.54,3.9Z"/><path d="M1536.46,217.09c15.32,9.23,38,18.91,62.15,18.82h1.3c35.69-.53,73.26-26.94,73.26-68.53,0-45.06-31.57-55.46-63.5-71.95-32.34-15.79-45.71-23.88-45.71-45,0-14.44,8.81-35.61,37.31-35.61a51,51,0,0,1,24,5.88c23.2,12.91,24.35,31,27.34,42.72H1656l-2-50.89A145.5,145.5,0,0,0,1619.4,2.38,103.08,103.08,0,0,0,1606,1.46c-31.93,0-69.57,19.14-69.57,59.48,0,27.55,16.46,44.72,49.08,60.83s56.77,22.87,56.77,55.13c0,16.49-9.38,45-45.7,45a53.5,53.5,0,0,1-35.27-12.61c-21.53-20.34-21-36.46-22.67-42.49h-3.35l1,50.4"/><path d="M61.77,178.87a307,307,0,0,0,44.3,156.47,256.89,256.89,0,0,0,127.2,106.59A255.86,255.86,0,0,0,360.7,335.34,306.2,306.2,0,0,0,405,178.87V3H61.77Z"/><path d="M425.49,261.58l-1.64,5.66c-2,6.78-4.26,13.35-6.59,19.65L402.57,273.6,400.74,279a311,311,0,0,1-30.55,65.16c-32.34,51.59-77.77,89.25-131.33,108.78l-5.5,2c-1.53-.62-5.33-2-5.33-2-53.53-19.6-99-57.22-131.24-108.78A300.11,300.11,0,0,1,66.21,279l-1.8-5.35-4.29,3.77-10.56,9.46C47.28,280.54,45,274,43,267.28l-1.64-5.65L37,265.57,0,298.89l.67,2.26A429.66,429.66,0,0,0,34.6,377.59l2.14,4,15.39-13.73c.58,1,1,2.15,1.7,3.11,38.22,61.22,92.5,105.85,156.8,129.38l22.64,8.31,22.93-8.31C320.51,476.85,374.57,432.17,412.88,371c.62-1,1.21-2.14,1.8-3.14l15.14,13.7,2.29-4A416.7,416.7,0,0,0,466,301.09l.69-2.23Z"/><path class="cls-1" d="M376.16,80.26a15.14,15.14,0,0,1-1.62,6.82,10.58,10.58,0,0,1-2.49,3.43A16.58,16.58,0,0,0,368,93.05a12.12,12.12,0,0,1,1.5-8.56,15.3,15.3,0,0,1,6.44-6.33A18.81,18.81,0,0,1,376.16,80.26Z"/><path class="cls-1" d="M348.26,126.77a14.44,14.44,0,0,1,8.82,1.56,13.42,13.42,0,0,1-7.82,4.2,16,16,0,0,1-9.05-1.53A15.52,15.52,0,0,1,348.26,126.77Z"/><path class="cls-1" d="M333.5,131.38v-.67a14.71,14.71,0,0,1,2.2-7.85,14.52,14.52,0,0,1,6.65-5.47,3.75,3.75,0,0,1,0,.82,14.11,14.11,0,0,1-2.21,7.63A12.78,12.78,0,0,1,333.5,131.38Z"/><path class="cls-1" d="M344.88,115.45a16.15,16.15,0,0,1,4.28-4.7,17.11,17.11,0,0,1,.86,4,14,14,0,0,1-.74,4.57,13.41,13.41,0,0,1-3.64,5.31,16.93,16.93,0,0,0-1.85.66,1.55,1.55,0,0,1,0-.43A17.78,17.78,0,0,0,344.88,115.45Z"/><path class="cls-1" d="M351.32,108.16a15.53,15.53,0,0,1,3.14-5.64,14.42,14.42,0,0,1,2.12,7.23v1.17a13.09,13.09,0,0,1-2.18,5.88,14.1,14.1,0,0,0-1.82,1.12c-.58.42,0-.24-.14-.36A17.77,17.77,0,0,0,351.32,108.16Z"/><path class="cls-1" d="M355.84,99.43a20.11,20.11,0,0,1,1.48-6.09,14.29,14.29,0,0,1,4.11,7.68V103a12.59,12.59,0,0,1-.85,4.38,18,18,0,0,0-1.45,1.57,1.83,1.83,0,0,1-.26-.38A20.83,20.83,0,0,0,355.84,99.43Z"/><path class="cls-1" d="M358,90a13.79,13.79,0,0,1-.32-2.94,15.54,15.54,0,0,1,.58-3.3,14.63,14.63,0,0,1,5.88,6.45,14.83,14.83,0,0,1,.92,5.52c0,.28,0,.55,0,.83a13.11,13.11,0,0,0-1.18,1.93,4.06,4.06,0,0,1-.36-.26A18.63,18.63,0,0,0,358,90Z"/><path class="cls-1" d="M358.17,80.47a14.53,14.53,0,0,1-1.35-6.38,15.94,15.94,0,0,1,7.14,5A13.59,13.59,0,0,1,366.34,85c-.25.69-.47,1.4-.65,2.11h-.44A18.14,18.14,0,0,0,358.17,80.47Z"/><path class="cls-1" d="M365.05,75.76h-.57A18.66,18.66,0,0,0,356.4,71a15.57,15.57,0,0,1-2.74-5.71,14,14,0,0,1,7.85,3.23,13.18,13.18,0,0,1,3.66,5.33A15.07,15.07,0,0,0,365.05,75.76Z"/><path class="cls-1" d="M361.17,65a17.56,17.56,0,0,0-9.18-3A17.08,17.08,0,0,1,347.78,57a15.54,15.54,0,0,1,8.83,1.46,14.67,14.67,0,0,1,4.56,4.24,17.76,17.76,0,0,0,.38,2.16Z"/><path class="cls-1" d="M355.25,124.68a17.57,17.57,0,0,0-4.61-.7,17,17,0,0,1,6.35-5.59,15.41,15.41,0,0,1,9.11-.52,14.37,14.37,0,0,1-6.85,5.87A11.25,11.25,0,0,1,355.25,124.68Z"/><path class="cls-1" d="M363.48,114.71a17.36,17.36,0,0,0-4.76.39,14.45,14.45,0,0,1,14-9.74A15.24,15.24,0,0,1,367.4,113,15.9,15.9,0,0,1,363.48,114.71Z"/><path class="cls-1" d="M372.52,100.45a12.79,12.79,0,0,1-3.39,2.77,19.91,19.91,0,0,0-4.38,1.38A15.74,15.74,0,0,1,368,96.52a16.57,16.57,0,0,1,7.64-4.44A14.9,14.9,0,0,1,372.52,100.45Z"/><path class="cls-1" d="M374.07,70.29a14.61,14.61,0,0,1-.41,3.42,11.31,11.31,0,0,1-1.76,3.93A16.52,16.52,0,0,0,368.55,81a15.24,15.24,0,0,1-1.09-5.24,14.33,14.33,0,0,1,.52-3.52,15.81,15.81,0,0,1,5-7.66A16.85,16.85,0,0,1,374.07,70.29Z"/><path class="cls-1" d="M363.55,60.74a15.91,15.91,0,0,1,2.93-8.51,15.47,15.47,0,0,1,2.95,8.56,12.88,12.88,0,0,1-.8,4.21,20.46,20.46,0,0,0-2.44,3.93,14.77,14.77,0,0,1-2.71-8.14Z"/><path class="cls-1" d="M357.46,41.62a15.11,15.11,0,0,1,5,7.68,17.6,17.6,0,0,1,.38,3.14c0,.3,0,.61,0,.91A18,18,0,0,0,361.25,58a14.27,14.27,0,0,1-4.41-7.32,19.87,19.87,0,0,1-.29-3.27A18,18,0,0,1,357.46,41.62Z"/><path class="cls-1" d="M355.78,55.18h-.44a18.39,18.39,0,0,0-9.73-.6,17.2,17.2,0,0,1-5.18-3.9,15.39,15.39,0,0,1,8.83-.65A13.47,13.47,0,0,1,354.87,53,21.11,21.11,0,0,0,355.78,55.18Z"/><path class="cls-1" d="M346.43,33.43a13.85,13.85,0,0,1,7.85,10.19,21.64,21.64,0,0,0-.41,4.89,16.35,16.35,0,0,1-6.26-6.12,15.4,15.4,0,0,1-1.47-6.65A17.78,17.78,0,0,1,346.43,33.43Z"/><path class="cls-1" d="M343.11,39.3l.91.82a16.91,16.91,0,0,0,1.24,3.38,17.74,17.74,0,0,0,2.14,3.16A15.32,15.32,0,0,1,339.64,44a15.93,15.93,0,0,1-5.11-7.47A14.76,14.76,0,0,1,343.11,39.3Z"/><path class="cls-1" d="M302.36,104.9a3.37,3.37,0,0,1,3.24,3.41,3,3,0,0,1-.39,1.38c-.29.61-.5,1.32.79,1.32h4.62V52.7A58.69,58.69,0,0,1,315.83,26l1.33-2.59L318.47,26a61.36,61.36,0,0,1,5,26.69V111h4.57c1.31,0,1.07-.71.78-1.32a3.37,3.37,0,0,1-.36-1.38,3.45,3.45,0,0,1,3.44-3.41h0a3.52,3.52,0,0,1,3.45,3.52c0,2.41-1.85,4.88-6.16,4.88h-7.59a32.45,32.45,0,0,1,1.73,11.09,32,32,0,0,1-2.49,13.18,41.7,41.7,0,0,0,14-4.5l.38-.24,1.06,2.5-.29.17a43.34,43.34,0,0,1-11.56,3.91l-5.24,1a2.91,2.91,0,0,1,.92,2.24h0a2.94,2.94,0,0,1-2.94,2.93H317a2.94,2.94,0,0,1-2.23-5.32l-5.62-1a42.4,42.4,0,0,1-11.14-3.9l-.29-.17,1.08-2.52.36.24a42.6,42.6,0,0,0,14.26,4.56,28.25,28.25,0,0,1-2.73-13.23,32.08,32.08,0,0,1,1.73-11.08h-7.58c-4.07,0-5.88-2.53-5.88-4.88A3.55,3.55,0,0,1,302.36,104.9Z"/><path class="cls-1" d="M290.39,124.89a1.69,1.69,0,0,1,0,.45,11,11,0,0,0-1.88-.66,12.09,12.09,0,0,1-3.38-5.35,14.81,14.81,0,0,1-.73-4.53,18.68,18.68,0,0,1,.83-4,19.23,19.23,0,0,1,4.11,4.7A17.32,17.32,0,0,0,290.39,124.89Z"/><path class="cls-1" d="M282.37,62.24A17.74,17.74,0,0,0,273,65.17h-.36a15.54,15.54,0,0,0,.41-2.14,13.38,13.38,0,0,1,4.73-4.24,15.21,15.21,0,0,1,8.52-1.5A14.87,14.87,0,0,1,282.37,62.24Z"/><path class="cls-1" d="M282,117.71a2.28,2.28,0,0,1-.18.35c-.58-.4-1.19-.79-1.82-1.14a13.35,13.35,0,0,1-2.21-5.88V109.9a15.18,15.18,0,0,1,2.12-7.24,14.64,14.64,0,0,1,3.17,5.65A17.09,17.09,0,0,0,282,117.71Z"/><path class="cls-1" d="M272.69,101a14.83,14.83,0,0,1,4.09-7.68,14.45,14.45,0,0,1,1.71,6.09,18.49,18.49,0,0,0-3.35,9.09l-.26.38c-.48-.57-1-1.07-1.48-1.57a13.57,13.57,0,0,1-.85-4.38A15.52,15.52,0,0,1,272.69,101Z"/><path class="cls-1" d="M270.69,98.07l-.35.27c-.32-.67-.72-1.32-1.12-2a3.39,3.39,0,0,1,0-.78A13.44,13.44,0,0,1,276,83.82a19.32,19.32,0,0,1,.55,3.29,13.33,13.33,0,0,1-.34,2.94A19.37,19.37,0,0,0,270.69,98.07Z"/><path class="cls-1" d="M272.78,68.43a14.3,14.3,0,0,1,8.09-3.23,16,16,0,0,1-2.94,5.68,19,19,0,0,0-8.35,4.79,1.93,1.93,0,0,0-.48,0v-2A12.11,12.11,0,0,1,272.78,68.43Z"/><path class="cls-1" d="M270.17,79.14a15.46,15.46,0,0,1,7.2-5,14.09,14.09,0,0,1-1.44,6.31A18.94,18.94,0,0,0,268.84,87l-.38.17a17.35,17.35,0,0,0-.58-2.11A12.36,12.36,0,0,1,270.17,79.14Z"/><path class="cls-1" d="M269.38,104.54a16.94,16.94,0,0,0-4.12-1.38,13.31,13.31,0,0,1-3.44-2.76A15.14,15.14,0,0,1,258.41,92a15.83,15.83,0,0,1,7.9,4.45A16.68,16.68,0,0,1,269.38,104.54Z"/><path class="cls-1" d="M270.26,108.1a15.41,15.41,0,0,1,5.14,7,17.94,17.94,0,0,0-4.79-.38A13.44,13.44,0,0,1,267,112.9a15.26,15.26,0,0,1-5.24-7.59A14.79,14.79,0,0,1,270.26,108.1Z"/><path class="cls-1" d="M277.11,118.39a16,16,0,0,1,6.62,5.59,17.58,17.58,0,0,0-4.62.7,12.75,12.75,0,0,1-4.27-1,14,14,0,0,1-6.76-5.89A15.31,15.31,0,0,1,277.11,118.39Z"/><path class="cls-1" d="M285.92,126.77a15.56,15.56,0,0,1,8,4.23,15.76,15.76,0,0,1-8.83,1.53,15.07,15.07,0,0,1-8-4.2A15.27,15.27,0,0,1,285.92,126.77Z"/><path class="cls-1" d="M293.84,125.84a14.2,14.2,0,0,1-2.14-7.63v-.82a15.51,15.51,0,0,1,6.93,5.47,14.78,14.78,0,0,1,2.18,7.85v.67A14,14,0,0,1,293.84,125.84Z"/><path class="cls-1" d="M288.87,43.5a17.45,17.45,0,0,0,1.21-3.38c.29-.26.62-.55,1-.82a15.43,15.43,0,0,1,8.82-2.71,15,15,0,0,1-5.38,7.47,15.39,15.39,0,0,1-7.76,2.62,18.76,18.76,0,0,0,2.15-3.14Z"/><path class="cls-1" d="M281.35,39.86a15.39,15.39,0,0,1,6.33-6.38,13.09,13.09,0,0,1-1.22,8.82,14.09,14.09,0,0,1-5.89,6.12,17.71,17.71,0,0,0-.41-4.88A14,14,0,0,1,281.35,39.86Z"/><path class="cls-1" d="M279.43,53.18a13.21,13.21,0,0,1,5.61-3,14.72,14.72,0,0,1,8.61.66,17.16,17.16,0,0,1-5,3.81,17.62,17.62,0,0,0-9.49.6h-.42A17.74,17.74,0,0,0,279.43,53.18Z"/><path class="cls-1" d="M271.72,49.3a14.77,14.77,0,0,1,4.92-7.68,16.29,16.29,0,0,1,1.23,5.89,12.37,12.37,0,0,1-.38,3.26A15.39,15.39,0,0,1,273,58.08a18.6,18.6,0,0,0-1.56-4.67v-.9A15,15,0,0,1,271.72,49.3Z"/><path class="cls-1" d="M264.88,60.79a16.32,16.32,0,0,1,2.79-8.56,16.09,16.09,0,0,1,2.94,8.51A15.68,15.68,0,0,1,268,68.88a15.64,15.64,0,0,0-2.3-3.95,12.26,12.26,0,0,1-.79-4.19Z"/><path class="cls-1" d="M261.44,64.62a15.68,15.68,0,0,1,5,7.64,14,14,0,0,1,.42,3.47A15.7,15.7,0,0,1,265.81,81a15.21,15.21,0,0,0-3.37-3.33,12.77,12.77,0,0,1-1.77-3.93,13.65,13.65,0,0,1-.44-3.42A16.68,16.68,0,0,1,261.44,64.62Z"/><path class="cls-1" d="M258.27,78.09a15,15,0,0,1,6.66,6.31,14.46,14.46,0,0,1,1.65,6.85,5.72,5.72,0,0,1-.17,1.68,17,17,0,0,0-4.12-2.5A14.12,14.12,0,0,1,259.67,87,13.8,13.8,0,0,1,258,80.16,12.12,12.12,0,0,1,258.27,78.09Z"/><path d="M320.77,52.7a59.87,59.87,0,0,0-3.61-22v76.76h3.61Z"/><path class="cls-1" d="M176.31,115.49a59.79,59.79,0,0,0,19.06,2.72V37.66a63.92,63.92,0,0,1-20-2.95,58.14,58.14,0,0,0-15.76-2.49A18.68,18.68,0,0,0,147,36.36V116.3a23.71,23.71,0,0,1,12.47-3.38A61.58,61.58,0,0,1,176.31,115.49Z"/><path class="cls-1" d="M130.81,112.87a23.18,23.18,0,0,1,12.43,3.4V36.42a18.22,18.22,0,0,0-12.59-4.15,58,58,0,0,0-15.75,2.5A63.6,63.6,0,0,1,95,37.71v80.56a59.61,59.61,0,0,0,19-2.73A61,61,0,0,1,130.81,112.87Z"/><path class="cls-1" d="M207.45,39.33h-7l.44,1.79a1.32,1.32,0,0,1,0,.56V124.6h-51.4c-.94,1.58-2.05,1.84-4.4,1.84s-3.16-.26-4.06-1.84H89.32V41.68a1.94,1.94,0,0,1,0-.59l.43-1.76h-7V131h55.39a7.57,7.57,0,0,0,6.78,4,7.71,7.71,0,0,0,7-4h55.48Z"/><path d="M159.47,51.63a28.42,28.42,0,0,0-7.76,1.26V57a23.94,23.94,0,0,1,7.91-1.47,61.26,61.26,0,0,1,15.67,2.62,83.13,83.13,0,0,0,15,2.93v-3.9a79.76,79.76,0,0,1-14-2.94A63.72,63.72,0,0,0,159.47,51.63Z"/><path d="M159.47,98.36a29.59,29.59,0,0,0-7.76,1.24v4.16a22.21,22.21,0,0,1,7.91-1.45,58.18,58.18,0,0,1,15.67,2.52,81.47,81.47,0,0,0,15,3V104a74.52,74.52,0,0,1-14-2.78A64.73,64.73,0,0,0,159.47,98.36Z"/><path d="M159.47,89a30.43,30.43,0,0,0-7.76,1.23v4.15a22.67,22.67,0,0,1,7.91-1.46,61.29,61.29,0,0,1,15.73,2.57,81,81,0,0,0,14.93,3V94.55a82.5,82.5,0,0,1-14-2.8A60.92,60.92,0,0,0,159.47,89Z"/><path d="M159.47,61a28.76,28.76,0,0,0-7.76,1.22v4.12a24.72,24.72,0,0,1,7.91-1.46,59.82,59.82,0,0,1,15.64,2.61,83.47,83.47,0,0,0,15,2.94V66.62a80.08,80.08,0,0,1-14.05-2.76A59.77,59.77,0,0,0,159.47,61Z"/><path d="M159.47,79.73a26.88,26.88,0,0,0-7.76,1.12V85a22.24,22.24,0,0,1,7.87-1.35,58.85,58.85,0,0,1,15.65,2.59A87.3,87.3,0,0,0,190.28,89V85.23a83.44,83.44,0,0,1-14.11-2.77A61.86,61.86,0,0,0,159.47,79.73Z"/><path d="M176.28,45a63.36,63.36,0,0,0-16.81-2.65,30,30,0,0,0-7.76,1.15v4.15a23.44,23.44,0,0,1,7.91-1.47,58.26,58.26,0,0,1,15.67,2.59,75.86,75.86,0,0,0,15,2.93V47.8A76.15,76.15,0,0,1,176.28,45Z"/><path d="M114,91.79a89.07,89.07,0,0,1-14.09,2.76v3.79A86.6,86.6,0,0,0,115,95.4a59.46,59.46,0,0,1,15.66-2.59,22.06,22.06,0,0,1,7.95,1.48V90.13a30.8,30.8,0,0,0-7.79-1.23A60.23,60.23,0,0,0,114,91.79Z"/><path d="M114.13,82.46a89.28,89.28,0,0,1-14.2,2.94v3.73a90.48,90.48,0,0,0,15.14-2.79,58.54,58.54,0,0,1,15.58-2.59,22,22,0,0,1,7.95,1.38V81a27.46,27.46,0,0,0-7.79-1.15A61.62,61.62,0,0,0,114.13,82.46Z"/><path d="M159.47,70.31a30.89,30.89,0,0,0-7.76,1.24v4.12a25.07,25.07,0,0,1,7.91-1.44,57.6,57.6,0,0,1,15.73,2.65,90.21,90.21,0,0,0,14.93,2.76V75.88a78.88,78.88,0,0,1-14-2.95A62.13,62.13,0,0,0,159.47,70.31Z"/><path d="M114,101.14a78.42,78.42,0,0,1-14.11,2.76v3.79A85.68,85.68,0,0,0,115,104.75a57.41,57.41,0,0,1,15.66-2.53,22.26,22.26,0,0,1,7.95,1.42V99.52a29.47,29.47,0,0,0-7.79-1.24A62.85,62.85,0,0,0,114,101.14Z"/><path d="M114,45a76.05,76.05,0,0,1-14.09,2.94v3.69a78.41,78.41,0,0,0,15.2-3,57.5,57.5,0,0,1,15.68-2.59,23.59,23.59,0,0,1,7.93,1.47V43.45A27.79,27.79,0,0,0,131,42.28,61.24,61.24,0,0,0,114,45Z"/><path d="M114,54.39a82.6,82.6,0,0,1-14.09,2.93v3.8A83,83,0,0,0,115,58.18a59.5,59.5,0,0,1,15.66-2.62A23.66,23.66,0,0,1,138.6,57V52.91a29.49,29.49,0,0,0-7.79-1.26A62.91,62.91,0,0,0,114,54.39Z"/><path d="M114,73.09A82.6,82.6,0,0,1,99.93,76v3.74A87.55,87.55,0,0,0,115,77a57.5,57.5,0,0,1,15.66-2.61,24.54,24.54,0,0,1,7.95,1.44V71.73a29.54,29.54,0,0,0-7.74-1.26A60.94,60.94,0,0,0,114,73.09Z"/><path d="M114.13,63.74a82.68,82.68,0,0,1-14.2,2.76v3.79a83.88,83.88,0,0,0,15.14-2.94,58.49,58.49,0,0,1,15.58-2.61,26.25,26.25,0,0,1,7.95,1.43v-4A29.08,29.08,0,0,0,130.86,61,58.72,58.72,0,0,0,114.13,63.74Z"/><path class="cls-1" d="M185.87,324.32l-.17,11.82-9.32-7.29-9.59,7.29-.24-11.82-11.42-2.94,9.07-7.53L159.35,303l11.58,2.42,5.45-10.59,5.17,10.59L193.37,303l-5.05,10.85,9.08,7.53Z"/><path class="cls-1" d="M250.64,407.78l-11.76-4.43-5.23,11.52-5.12-11.52-11.9,4.43,4.43-11.85-11.4-5.4,11.4-5.17-4.43-12,11.9,4.46,5.12-11.61,5.23,11.61,11.76-4.46-4.26,12,11.32,5.24-11.32,5.33Z"/><path class="cls-1" d="M216.3,248.82l11.76,2.47,5.21-10.61,5.44,10.61,11.67-2.47-4.91,10.78,9.09,7.66-11.5,2.85-.23,11.9-9.56-7.26L224,282l-.21-11.9-11.49-2.85,9.11-7.66Z"/><path class="cls-1" d="M263.34,344.87l-9.26-4.59-9,4.59,1.67-10.14-7.31-7.21,10.11-1.61,4.52-9.06,4.76,9.06,10,1.61-7.05,7.21Z"/><path class="cls-1" d="M300.77,307.61l-10.55-.14-5,9.06-5.12-9.06-10.56.14,5.44-9-5.44-9,10.56.18,5.12-9.11,5,9.11,10.55-.18-5.41,9Z"/><path class="cls-1" d="M233.27,196.93,364.1,314.3a295.77,295.77,0,0,0,19.65-47.61L233.27,131.45,83.09,266.69a286,286,0,0,0,19.63,47.61Z"/><path class="cls-1" d="M436.22,353.89l7.06-43.68L423.06,292a180,180,0,0,0,5.88-17.32c6.08,5.47,26.46,23.82,29.4,26.48A386,386,0,0,1,436.22,353.89Z"/><path class="cls-1" d="M426.44,368.48c-2-1.79-4.79-4.33-8-7.14v-.15c4.59-7.85,9-15.82,12.82-24.14Z"/><path class="cls-1" d="M8.52,301.12c3-2.59,23.53-21,29.41-26.46,1.85,6,3.88,11.76,5.87,17.26L23.51,310.14l7,43.58A382,382,0,0,1,8.52,301.12Z"/><path class="cls-1" d="M40.24,368.48,35.43,337c3.85,8.32,8.26,16.38,12.94,24.31Z"/><path class="cls-1" d="M406.74,367.12c-37.52,59.75-90.41,103.45-153.1,126.43L233.27,501c-2-.84-20.11-7.43-20.11-7.43C150.51,470.59,97.58,426.91,60,367.1a339.15,339.15,0,0,1-27.46-55c3.24-2.93,22.73-20.58,28.53-25.69a311.2,311.2,0,0,0,29.39,61.74c33.28,52.93,79.82,91.7,135,111.87l7.88,3,8.11-3c55.16-20.17,101.76-58.79,134.86-111.87a304.82,304.82,0,0,0,29.41-61.74c5.59,5.18,25.22,22.81,28.52,25.69A343.76,343.76,0,0,1,406.74,367.12Z"/><path d="M72.07,347.46l5.87-6.58-.5-2c-1.15-1.08-2.26-2.23-3.3-3.42-6.14,1.12-15.87,2.65-20.22,2.94l-1.15-1.29-1.14.65c.62,1,1.14,2,1.7,2.93s1.23,2.45,1.88,3.66l1.11-.69-.5-1.76,6.42-1.47,3.43,5.88a51.19,51.19,0,0,1-4.61,4.82l-1.26-1.47-1.2.71c.84,1.47,1.74,2.93,2.58,4.43s1.59,2.95,2.35,4.35l1.24-.69-.59-1.76C65.39,355.2,69.24,350.69,72.07,347.46ZM65,340l8.19-1.69-5.66,6.26Z"/><path d="M101.29,378.24l1.11-.85c-.76-1-1.59-2-2.32-2.94s-1.48-2.09-2.17-3.14l-1.21.81.88,1.83c-2.93,2.45-10.71,8.23-10.71,8.23l6.3-17.34c-.73-1-1.44-1.86-2.14-2.95S89.79,360,89.17,359l-1.09.81.79,1.83a43,43,0,0,1-4.67,3.64L79.06,369A52.44,52.44,0,0,1,74,372.1l-1.44-1.41-1.08.79c.76,1,1.5,2,2.26,3.11s1.38,2.09,2.14,3.15l1.12-.82-.88-1.85c2.93-2.45,7.44-5.62,10.94-8.21-2.23,5.88-4.3,11.76-6.59,17.65a23.65,23.65,0,0,1,1.55,2,12.65,12.65,0,0,1,1.31,1.91c1.67-1.36,3.88-2.95,6.37-4.88l5-3.62c1.88-1.33,3.45-2.33,5.07-3.26Z"/><path d="M102.67,395.32a10.73,10.73,0,0,0-.5,15.62,14.7,14.7,0,0,0,10.64,5.12l.38-2.57a9.6,9.6,0,0,1-6.24-2.94,7.75,7.75,0,0,1,.48-11.46,6.78,6.78,0,0,1,10.18.27,11.33,11.33,0,0,1,2.47,4.9l-1.16,1.36,1,1.17a15.32,15.32,0,0,1,4.62-2.7,20.78,20.78,0,0,0-4.28-6.65C115.13,391.7,107.73,390.58,102.67,395.32Z"/><path d="M144.71,420.52c-5.88-5-12.82-4.24-16.87.59-4.47,5.52-3.42,11.75,2.5,16.7s12.9,4.23,16.82-.62C151.89,431.72,150.8,425.49,144.71,420.52Zm-2,12.91c-2.94,3.59-7.26,4.67-10.47,2.05s-2.93-7,.18-10.55,7.29-4.73,10.47-2.06S145.59,429.81,142.74,433.43Z"/><path d="M175.85,443.28c-1.26-.8-2.62-1.59-3.92-2.35s-2.67-1.53-3.93-2.33-2.18-1.44-3.26-2.15l-.78,1.21,1.52,1.39a53.4,53.4,0,0,1-2.95,5.2l-2.95,5.32c-1.23,1.85-2.28,3.35-3.46,4.85l-1.89-.74-.72,1.21,4.34,2.62c1.42.85,2.8,1.83,4.09,2.73l.71-1.18-1.36-1.34a32.84,32.84,0,0,1,3-5.27l1.08-1.67,1.38.88c.35,3.23.68,8.68.92,12.56a53.67,53.67,0,0,1,5.88,3.16l.76-1.17-.62-.85c-.35-1.5-1.38-9.26-1.71-11.42a5.9,5.9,0,0,0,7.66-1.81C180.9,449.63,180.94,446.51,175.85,443.28Zm-1.54,5.88c-1.38,2.14-3.52,2-6.17.41a10,10,0,0,1-1.59-1.17l.95-1.53a37.33,37.33,0,0,1,2.5-3.66,17.65,17.65,0,0,1,2.64,1.42C174.88,446,175.35,447.51,174.31,449.16Z"/><path d="M207.83,460.3,206.22,459a43.38,43.38,0,0,1-4.67-.8A202,202,0,0,1,187,472.59l-1.79-.38-.56,1.29c1.09.47,2.2.88,3.26,1.38l3.77,1.76.62-1.26-1.54-1.08,4.3-5,6.19,2.95a58.77,58.77,0,0,1-.84,6.59l-1.89-.45-.55,1.24,4.78,2.06,4.45,2.12.56-1.27-1.47-1.11c0-2,.29-7.89.7-12.18Zm-6.31,9.23-4.8-2.17,5.62-6.26Z"/><path d="M269.9,477.09a43.82,43.82,0,0,1-2.52-5.38L264.91,466c-.82-1.81-1.55-3.67-2.19-5.55l1.71-1.14-.59-1.31c-1.58.74-3.11,1.48-4.64,2.1s-3.12,1.28-4.71,2l.59,1.24,2-.45c.91,1.62,1.74,3.27,2.69,5.38l2.49,5.71c.94,2.06,1.58,3.76,2.2,5.54l-1.67,1.14.55,1.26c1.59-.71,3.09-1.44,4.54-2.11s2.93-1.27,4.62-1.91l-.6-1.3Z"/><path d="M309,455.83a56.91,56.91,0,0,1-3.34-5l-2.94-5.38a52.09,52.09,0,0,1-3-5.19l1.56-1.36-.76-1.24c-1.26.86-2.54,1.67-3.82,2.41l-3.94,2.24c.73,2.94,2.94,13.55,3.34,15.82-2.43-1.69-10.28-8.42-12.28-10.38l-3.8,2.35-3.93,2.17.73,1.18,1.77-.58,1.55,2.52c1.47,2.53,6.18,10.88,7.32,13.23L286,470l.71,1.17,3.24-2c1.11-.67,2.26-1.29,3.4-1.91l-.73-1.21-1.91.74a46.58,46.58,0,0,1-3.35-5l-1.77-2.94c-1.47-2.65-2.56-4.53-3.09-5.47,7.85,6.65,12.18,10.12,14.3,12l2.93-1.73L296,445.21c.61.88,1.8,2.78,3.39,5.42l1.84,2.93a34.08,34.08,0,0,1,2.68,5.33l-1.3,1.29.62,1.23c1.27-.88,2.71-1.76,4.21-2.67s2.94-1.68,4.44-2.56l-.71-1.17Z"/><path d="M330.08,440.22c-1.29-1.39-2.52-2.74-4-4.53l-2.93-3.5c-1.21-1.44-2.57-3.4-3.66-5a11.8,11.8,0,0,1,1.68-1.92,3.71,3.71,0,0,1,5.7.24,3.58,3.58,0,0,1,1.23,2.72,3.64,3.64,0,0,1-1.52,3,8.7,8.7,0,0,1-1.41.91l1.05,2.66A16.17,16.17,0,0,0,329,432.9c4.69-3.73,4.8-8.44,2.24-11.58s-5.88-3.21-9.69,0a33.59,33.59,0,0,1-3.18,2.79,45.12,45.12,0,0,1-3.59,2.94c-1,.74-2.24,1.7-3.56,2.79l.91,1.09,1.76-1c1.33,1.33,2.57,2.71,4,4.44l3.7,4.86c1.47,1.78,2.56,3.26,3.61,4.78l-1.31,1.55.85,1.12c1.32-1.14,2.58-2.22,3.94-3.29s2.64-2,4.68-3.59l-.95-1.07Z"/><path d="M364.63,408a110.81,110.81,0,0,1-11.17-4.76l-8.14-3.89-1.77,1.09c-.74,1.3-1.46,2.68-2.38,4.11,2.94,5.65,7.23,14.38,8.82,18.65l-1,1.46,1,1c.76-.82,1.56-1.74,2.42-2.53s2-2,2.93-2.95l-1-1-1.55,1.09-3.27-5.71,4.91-5a59.7,59.7,0,0,1,5.88,2.94l-1,1.62,1,1,3.52-3.8,3.56-3.43-1-1Zm-16.37,4.2-4-7.43,7.7,3.69Z"/><path d="M388.89,378c-1.47.19-9.47.5-11.75.6a5.92,5.92,0,0,0-1.16-7.86c-2.15-1.76-5.26-2-9,2.74-.91,1.24-1.86,2.5-2.74,3.73l-2.67,3.59-2.47,2.94,1.14.83,1.5-1.36c1.62,1,3.12,2,5,3.45l5,3.76a47.57,47.57,0,0,1,4.45,3.85l-1,1.82,1.17.82c1-1.35,2-2.73,2.95-4.09s2.12-2.59,3.17-3.94L381.3,388l-1.47,1.32a55.48,55.48,0,0,1-5-3.38l-1.38-1.24.91-1.31c3.18,0,8.82.14,12.68.29a42.7,42.7,0,0,1,3.71-5.53l-1.12-.82Zm-16.17,3.69a13.82,13.82,0,0,1-1.36,1.4L369.93,382c-1.45-1.06-2.68-2.12-3.45-2.73a24.82,24.82,0,0,1,1.65-2.48c1.59-2.06,3.18-2.44,4.68-1.23S374.52,379.24,372.72,381.66Z"/><path d="M402,339.76c-6.35-3.71-12.11-1.65-16.11,5.11s-2.05,13.38,3.38,16.56c6,3.64,12.09,1.62,16.11-5.16S407.5,342.69,402,339.76Zm.64,15c-2.07,3.56-6.4,4-10.35,1.52s-5.87-6.31-3.76-9.87,6.3-3.88,10.39-1.53,5.88,6.24,3.72,9.73Z"/><path d="M233.27,474.35a4.8,4.8,0,0,0-4.59,4.79,4.9,4.9,0,0,0,4.59,5,5,5,0,0,0,5-5A5,5,0,0,0,233.27,474.35Z"/><path d="M55.1,322.11a4.91,4.91,0,0,0,4.81-4.79,4.79,4.79,0,1,0-9.58,0A4.87,4.87,0,0,0,55.1,322.11Z"/><path d="M412.47,322.11a4.92,4.92,0,0,0,4.88-4.79v0a4.82,4.82,0,1,0-4.88,4.81Z"/></g><path class="cls-2" d="M2435,2.77,2474,116,2513.16,2.77h13.34V131.45h-10.07V75.68l.88-56.12-39.42,111.89h-7.77L2430.87,20.09l.89,55.24v56.12h-10.08V2.77Z"/><path class="cls-2" d="M2633.18,81.07q0,24.93-10.92,38.53t-30.62,13.61q-19.53,0-30.62-13.61t-11.18-38.26v-28q0-24.84,11-38.58T2591.46,1q19.8,0,30.76,13.79t11,38.8ZM2623,53.14q0-21.12-8.13-31.72t-23.42-10.61q-14.76,0-23.06,10.38t-8.49,31.07V81.07q0,21.21,8.4,31.86t23.33,10.65q15.38,0,23.37-10.6t8-31.91Z"/><path class="cls-2" d="M2737.47,131.45h-10.08L2666.68,21.86V131.45h-10.17V2.77h10.17l60.8,109.76V2.77h10Z"/><path class="cls-2" d="M2824.52,95.48h-48.25l-11,36h-10.52l41-128.68h9.37l41,128.68h-10.52ZM2779.19,86h42.42L2800.4,17Z"/><path class="cls-2" d="M2922.1,99.81q0-10.78-6.15-17T2893,71q-16.79-5.66-24.66-12.64-10.34-9.11-10.34-24,0-14.76,10.17-24T2894.43,1q16.44,0,26.87,10.78t10.43,27.75h-10.16q0-13-7.29-21t-19.85-8q-12.19,0-19.22,6.59t-7,17a20.81,20.81,0,0,0,6.62,15.91q6.63,6.18,21.13,11t21.92,10a33.16,33.16,0,0,1,10.95,12.15,36,36,0,0,1,3.54,16.44q0,15.12-10.21,24.35t-27,9.23a45.54,45.54,0,0,1-20.63-4.64,34.74,34.74,0,0,1-14.59-13.34q-5.25-8.7-5.26-20.55h10.08q0,13.62,8.22,21.39t22.18,7.78q12.2,0,19.58-6.54T2922.1,99.81Z"/><path class="cls-2" d="M3032.31,131.45h-10.16V69.85h-60.46v61.6h-10.07V2.77h10.07V60.48h60.46V2.77h10.16Z"/><path class="cls-3" d="M2421.68,317.08V188.4H2452q20.94,0,33.14,13.38t12.55,36.9v27q0,24.21-12.33,37.82t-34.6,13.62Zm10.08-119.14V307.71h19.53q17.24,0,26.69-10.65t9.72-30.45v-27q0-19.8-9.23-30.76t-26.74-11Z"/><path class="cls-3" d="M2577.85,281.1H2529.6l-11,36h-10.52l41-128.68h9.37l41,128.68H2589Zm-45.34-9.45h42.43l-21.22-69Z"/><path class="cls-3" d="M2677.19,197.94H2640.6V317.08h-10.16V197.94h-36.5V188.4h83.25Z"/><path class="cls-3" d="M2745.78,281.1h-48.26l-11,36h-10.51l41-128.68h9.37l41,128.68h-10.52Zm-45.34-9.45h42.42l-21.21-69Z"/><path class="cls-3" d="M2482.13,471.06q0-10.77-6.14-17t-22.93-11.84q-16.8-5.65-24.66-12.64-10.33-9.09-10.34-24,0-14.76,10.16-24t26.25-9.28q16.44,0,26.87,10.78t10.43,27.75H2481.6q0-13-7.29-21t-19.84-8q-12.19,0-19.22,6.59t-7,17a20.8,20.8,0,0,0,6.63,15.91q6.63,6.18,21.12,11t21.92,10a33,33,0,0,1,11,12.15,35.9,35.9,0,0,1,3.54,16.44q0,15.11-10.21,24.35t-27,9.23a45.75,45.75,0,0,1-20.64-4.64A34.72,34.72,0,0,1,2420,486.49q-5.27-8.72-5.26-20.55h10.08q0,13.6,8.22,21.39t22.18,7.77q12.2,0,19.57-6.54T2482.13,471.06Z"/><path class="cls-3" d="M2591.53,462.58q-1.43,21.66-11.67,31.77t-28.37,10.12q-18.64,0-29.43-14.1t-10.87-38.31V424.13q0-24.3,11-38.09t30.09-13.78q18,0,27.93,10.34t11.32,31.72h-10.26q-1.41-17.49-8.26-25t-20.73-7.51q-14.58,0-22.71,10.87t-8.13,31.55V451.8q0,20.51,7.87,31.9t22.18,11.4q15,0,21.74-7.51t8-25Z"/><path class="cls-3" d="M2627.74,502.7h-10.08V374h10.08Z"/><path class="cls-3" d="M2719.1,441.1h-49.93v52.23h57.45v9.37h-67.53V374h67.08v9.55h-57v48.17h49.93Z"/><path class="cls-3" d="M2829.11,502.7H2819l-60.72-109.59V502.7h-10.16V374h10.16l60.81,109.77V374h10Z"/><path class="cls-3" d="M2935.94,462.58q-1.41,21.66-11.67,31.77t-28.36,10.12q-18.66,0-29.44-14.1t-10.87-38.31V424.13q0-24.3,11-38.09t30.09-13.78q18,0,27.93,10.34t11.31,31.72h-10.25q-1.43-17.49-8.27-25t-20.72-7.51q-14.58,0-22.71,10.87t-8.13,31.55V451.8q0,20.51,7.86,31.9t22.19,11.4q15,0,21.74-7.51t8-25Z"/><path class="cls-3" d="M3020.23,441.1H2970.3v52.23h57.44v9.37h-67.52V374h67.08v9.55h-57v48.17h49.93Z"/><path class="cls-3" d="M2480.19,652.36h-48.25l-11,36h-10.52l41-128.68h9.36l41,128.68h-10.51Zm-45.34-9.46h42.42l-21.21-69Z"/><path class="cls-3" d="M2598.27,688.33h-10.08l-60.71-109.59V688.33h-10.17V559.65h10.17l60.8,109.77V559.65h10Z"/><path class="cls-3" d="M2625.23,688.33V559.65h30.31q20.94,0,33.14,13.39t12.55,36.9v26.95q0,24.23-12.33,37.83t-34.6,13.61ZM2635.3,569.2V679h19.53q17.24,0,26.69-10.65t9.72-30.44v-27q0-19.8-9.23-30.75t-26.73-11Z"/><path class="cls-3" d="M2820.28,652.36H2772l-11,36h-10.52l41-128.68h9.37l41,128.68h-10.52ZM2775,642.9h42.42l-21.21-69Z"/><path class="cls-3" d="M2869.34,688.33h-10.08V559.65h10.08Z"/><line id="Divider" class="cls-4" x1="2167.68" y1="0.82" x2="2167.68" y2="690.14"/></g></g></svg>