<svg xmlns="http://www.w3.org/2000/svg" viewBox="0 0 2938 556.24"><defs><style>.cls-1{fill:#fff;}.cls-2{fill:#006dae;}.cls-3{fill:none;stroke:#231f20;stroke-miterlimit:10;stroke-width:5px;}</style></defs><g id="Layer_2" data-name="Layer 2"><g id="Layer_1-2" data-name="Layer 1"><path d="M744.83,271.63V407.35c0,55.86-22.91,81.74-72.07,81.74-57,0-68.92-44.46-68.92-81.74V271.63H587.23V407.35c0,64,28.79,96.5,85.53,96.5,58.8,0,88.68-32.48,88.68-96.5V271.63Z"/><path d="M869,330.59c-25.48,0-47.59,13.7-57,34.45V334.35H797.27V498.52H812v-88.7c0-40.14,22.26-66.07,56.65-66.07,44.44,0,44.44,38.64,44.44,51.34V498.52h14.7V397.3C927.79,379,927.79,330.59,869,330.59Z"/><path d="M964.25,334.35V498.53H979V334.35Z"/><path d="M964.25,284.14v22.13H979V284.14Z"/><path d="M1125.08,334.35s-52.13,140.8-54,145.87l-57.72-145.87H996.53l66.1,164.17h16.67l61.94-164.17Z"/><path d="M1221.45,330.59A66.2,66.2,0,0,0,1173.17,350c-15.84,16.13-24.72,41.35-24.34,69.28-.38,25.75,7.59,48.28,22.41,63.27,12.73,12.91,30.08,19.73,50.21,19.73,39.46,0,64.69-21.16,71.07-59.54l.3-1.64h-14.7l-.22,1.14c-5.58,29.41-26.66,46.87-56.41,46.87a52.12,52.12,0,0,1-38.64-15.5c-12.29-12.5-19.29-32-19.29-53.85v-.33h130.22v-1.36c0-2.05.14-4.11.14-6.14,0-25.1-7.45-46.72-21.28-61.19C1259.91,337.37,1242.71,330.59,1221.45,330.59Zm0,13.16c36.52,0,56.34,31.21,57.48,62.48H1163.77C1166.79,375,1187.28,343.75,1221.45,343.75Z"/><path d="M1334.91,366.92V334.35h-14.7V498.52h14.7V408.89c1.29-24.58,6.57-33.88,17.85-45.49a53.69,53.69,0,0,1,43.4-15.3l1.56.21v-14.7h-1.33C1369.46,332.23,1343.67,346.76,1334.91,366.92Z"/><path d="M1475.36,407.53l-4.81-1c-24.47-5.21-47.58-10.09-47.58-33.05,0-21.91,23.29-29.67,45.08-29.67,17.14,0,45.92,5.14,46.3,39.73V385h14.71v-1.38c0-34.11-21.68-52.93-61-52.93-14,0-59.81,3.12-59.81,42.84,0,35.72,32.76,42.36,56.69,47.19l4.23.88c25.67,5.14,50,10,50,34.81,0,29.62-34.81,32.78-49.77,32.78-29.82,0-50.23-18-51.95-45.75v-1.31h-14.7v1.43c.91,36.28,26.46,58.81,66.67,58.81,15.15,0,64.52-3.33,64.52-46C1533.63,421.26,1507.24,413.46,1475.36,407.53Z"/><path d="M1563.8,334.35V498.53h14.73V334.35Z"/><path d="M1641.93,334.35V284.13h-14.7v50.22h-29.84v13.18h29.81V461.59c0,12.66,3.12,21.82,9.47,28,9.78,9.47,25.87,9.73,38.83,8.81h1.33V485.33h-1.45c-13.32.34-22.08-.45-27.38-5.56-4.11-4-6-10.68-6-21V347.53h41l62.55,148.68c-7.26,20.58-11.75,32.33-16.13,36.92-7.62,7.64-15.23,10-32.58,10h-1.44v13.14h1.44c17.93,0,29.4-.5,38.51-7.47,6.94-5.4,12.15-16.9,19.26-33.86l69.8-180.56h-16.5s-52.13,138.4-54.39,144.77c-2.55-6.32-59-144.77-59-144.77Z"/><path d="M1563.77,284.14v22.13h14.76V284.14Z"/><path d="M959.84,234.71c-65.24-1.33-120.08-51.42-118.41-120.54C843.12,59.62,886.9-2.13,966.54.11c55.45,1,117.6,42.69,116,119.32S1015.94,236.41,959.84,234.71Zm2.32-220.52c-49.74,0-84.4,36.64-84.4,98.15,0,73.5,43.73,106.87,85.08,106.87,49.75,0,82.76-38.23,82.76-98.81.66-64.83-33-106.18-83.44-106.18Z"/><path d="M1918.38,6.32V3.08h-65.17V6.32c12.9.85,16.46,3.38,16.46,21.72V107.6H1752.8V28c0-18.34,3.55-20.87,16.47-21.72V3.08H1704V6.32c12.88.85,16.47,3.38,16.47,21.72V206.63c0,18.34-3.59,20.93-16.47,21.75v3.21h65.19v-3.21c-12.92-.82-16.47-3.41-16.47-21.75V121.36h117v85.27c0,18.34-3.56,20.93-16.46,21.75v3.21h65.17v-3.21c-12.87-.82-16.46-3.41-16.46-21.75V28C1901.92,9.63,1905.51,7.17,1918.38,6.32Z"/><path d="M1099.82,3.08V6.32c12.56.67,16.15,2,16.15,15.25V206.8c0,18.34-3.57,20.94-16.47,21.76v3.21h49.21v-3.21c-12.9-.82-16.49-3.42-16.49-21.76V40.39c0,3,127.27,157.89,154.75,191.26h5.26V21.57c0-13.2,3.55-14.7,16.11-15.25V3.08H1260V6.32c12.56.67,16.15,2,16.15,15.25V166.8L1143.33,3.08Z"/><path d="M1420.56,3.08H1416c-11.61,27.46-65.06,154-83.64,197.67-3.23,7.5-8.41,19.61-12.27,23.84a11.31,11.31,0,0,1-8.66,3.74v3.21h43.45v-3.21c-3.44,0-10.91,0-11.45-6.47a20.57,20.57,0,0,1,1.24-6.76c1.36-4.07,10.11-26.22,21.2-51.46h87c8.56,21.29,16.41,39.46,20,47.51a38.64,38.64,0,0,1,3.23,10.71c0,6.32-5.58,6.47-11.77,6.47v3.21h60.75v-3.21c-7.47-.5-9.85-2.38-15.28-14.71Zm-49,146.21c14.69-36.31,37.67-94.08,37.67-94.08s20.58,51.75,38,94.08Z"/><path d="M575.45,3.08V6.32c7,.38,11.16,1,13.52,3.82a17.92,17.92,0,0,1,1.79,3.38,13.87,13.87,0,0,1,.65,3.67c0,1.29.17,2.74.17,4.36V206.77c0,18.35-3.59,20.94-16.49,21.77v3.19h48.69v-3.19c-12.9-.83-16.47-3.42-16.47-21.77V48.15c0-2.93-.67-8.81-.67-8.81l2.93,8.81L688.52,230.8h4.8L773.93,42.63l2.35-7.74a46.75,46.75,0,0,0-.67,7.09V206.63c0,18.34-3.53,20.93-16.43,21.75v3.21h65.21v-3.21c-12.94-.82-16.5-3.41-16.5-21.75V21.4c0-13.2,3.56-14.7,16.15-15.27V2.91H773.43L700.48,175.34,626.54,3.08Z"/><path d="M1536.46,216.27c15.32,9.23,38,18.91,62.15,18.82h1.3c35.69-.53,73.26-26.94,73.26-68.53,0-45.06-31.57-55.46-63.5-71.95-32.34-15.79-45.71-23.88-45.71-45,0-14.44,8.81-35.61,37.31-35.61a51,51,0,0,1,24,5.88c23.2,12.91,24.35,31,27.34,42.72H1656l-2-50.89A145.5,145.5,0,0,0,1619.4,1.56,104.88,104.88,0,0,0,1606,.64c-31.93,0-69.57,19.14-69.57,59.48,0,27.55,16.46,44.72,49.08,60.83s56.77,22.87,56.77,55.13c0,16.49-9.38,45-45.7,45a53.5,53.5,0,0,1-35.27-12.61c-21.53-20.34-21-36.46-22.67-42.49h-3.35l1,50.4"/><path d="M61.77,178.05a307,307,0,0,0,44.3,156.47,256.89,256.89,0,0,0,127.2,106.59A255.86,255.86,0,0,0,360.7,334.52,306.2,306.2,0,0,0,405,178.05V2.14H61.77Z"/><path d="M425.49,260.76l-1.64,5.66c-2,6.78-4.26,13.35-6.59,19.65l-14.69-13.29-1.83,5.35a311,311,0,0,1-30.55,65.16c-32.34,51.59-77.77,89.25-131.33,108.78l-5.5,2c-1.53-.62-5.33-2-5.33-2-53.53-19.6-99-57.22-131.24-108.78a300.11,300.11,0,0,1-30.58-65.16l-1.8-5.35-4.29,3.77L49.56,286C47.28,279.72,45,273.22,43,266.46l-1.64-5.65L37,264.75,0,298.07l.67,2.26A429.66,429.66,0,0,0,34.6,376.77l2.14,4,15.39-13.73c.58,1,1,2.15,1.7,3.11C92.05,431.4,146.33,476,210.63,499.56l22.64,8.31,22.93-8.31C320.51,476,374.57,431.35,412.88,370.18c.62-1,1.21-2.14,1.8-3.14l15.14,13.7,2.29-4A416.7,416.7,0,0,0,466,300.27l.69-2.23Z"/><path class="cls-1" d="M376.16,79.44a15.14,15.14,0,0,1-1.62,6.82,10.58,10.58,0,0,1-2.49,3.43A16.58,16.58,0,0,0,368,92.23a12.12,12.12,0,0,1,1.5-8.56,15.3,15.3,0,0,1,6.44-6.33A18.81,18.81,0,0,1,376.16,79.44Z"/><path class="cls-1" d="M348.26,126a14.44,14.44,0,0,1,8.82,1.56,13.42,13.42,0,0,1-7.82,4.2,16,16,0,0,1-9.05-1.53A15.52,15.52,0,0,1,348.26,126Z"/><path class="cls-1" d="M333.5,130.57v-.68a14.71,14.71,0,0,1,2.2-7.85,14.52,14.52,0,0,1,6.65-5.47,3.75,3.75,0,0,1,0,.82,14.11,14.11,0,0,1-2.21,7.63A12.85,12.85,0,0,1,333.5,130.57Z"/><path class="cls-1" d="M344.88,114.63a16.15,16.15,0,0,1,4.28-4.7,17.11,17.11,0,0,1,.86,4,14,14,0,0,1-.74,4.57,13.41,13.41,0,0,1-3.64,5.31,16.93,16.93,0,0,0-1.85.66,1.55,1.55,0,0,1,0-.43A17.78,17.78,0,0,0,344.88,114.63Z"/><path class="cls-1" d="M351.32,107.34a15.53,15.53,0,0,1,3.14-5.64,14.42,14.42,0,0,1,2.12,7.23v1.17A13.09,13.09,0,0,1,354.4,116a14.1,14.1,0,0,0-1.82,1.12c-.58.42,0-.24-.14-.36A17.77,17.77,0,0,0,351.32,107.34Z"/><path class="cls-1" d="M355.84,98.61a20.11,20.11,0,0,1,1.48-6.09,14.29,14.29,0,0,1,4.11,7.68v1.93a12.59,12.59,0,0,1-.85,4.38,19.53,19.53,0,0,0-1.45,1.57,1.83,1.83,0,0,1-.26-.38A20.83,20.83,0,0,0,355.84,98.61Z"/><path class="cls-1" d="M358,89.17a13.79,13.79,0,0,1-.32-2.94,15.54,15.54,0,0,1,.58-3.3,14.63,14.63,0,0,1,5.88,6.45,14.83,14.83,0,0,1,.92,5.52c0,.28,0,.55,0,.83a13.11,13.11,0,0,0-1.18,1.93,4.06,4.06,0,0,1-.36-.26A18.63,18.63,0,0,0,358,89.17Z"/><path class="cls-1" d="M358.17,79.65a14.53,14.53,0,0,1-1.35-6.38,15.94,15.94,0,0,1,7.14,5,13.59,13.59,0,0,1,2.38,5.88c-.25.69-.47,1.4-.65,2.11h-.44A18.14,18.14,0,0,0,358.17,79.65Z"/><path class="cls-1" d="M365.05,74.94h-.57a18.66,18.66,0,0,0-8.08-4.76,15.57,15.57,0,0,1-2.74-5.71,14,14,0,0,1,7.85,3.23A13.18,13.18,0,0,1,365.17,73,15.07,15.07,0,0,0,365.05,74.94Z"/><path class="cls-1" d="M361.17,64.21A17.56,17.56,0,0,0,352,61.26a17.08,17.08,0,0,1-4.21-5.08,15.54,15.54,0,0,1,8.83,1.46,14.67,14.67,0,0,1,4.56,4.24,17.76,17.76,0,0,0,.38,2.16Z"/><path class="cls-1" d="M355.25,123.86a17.57,17.57,0,0,0-4.61-.7,17,17,0,0,1,6.35-5.59,15.41,15.41,0,0,1,9.11-.52,14.37,14.37,0,0,1-6.85,5.87A11.25,11.25,0,0,1,355.25,123.86Z"/><path class="cls-1" d="M363.48,113.89a17.36,17.36,0,0,0-4.76.39,14.45,14.45,0,0,1,14-9.74,15.24,15.24,0,0,1-5.29,7.59A15.9,15.9,0,0,1,363.48,113.89Z"/><path class="cls-1" d="M372.52,99.63a12.79,12.79,0,0,1-3.39,2.77,19.91,19.91,0,0,0-4.38,1.38A15.74,15.74,0,0,1,368,95.7a16.57,16.57,0,0,1,7.64-4.44A14.9,14.9,0,0,1,372.52,99.63Z"/><path class="cls-1" d="M374.07,69.47a14.61,14.61,0,0,1-.41,3.42,11.31,11.31,0,0,1-1.76,3.93,16.78,16.78,0,0,0-3.35,3.33,15.24,15.24,0,0,1-1.09-5.24,14.33,14.33,0,0,1,.52-3.52,15.81,15.81,0,0,1,5-7.66A16.85,16.85,0,0,1,374.07,69.47Z"/><path class="cls-1" d="M363.55,59.92a15.91,15.91,0,0,1,2.93-8.51A15.47,15.47,0,0,1,369.43,60a12.88,12.88,0,0,1-.8,4.21,20.46,20.46,0,0,0-2.44,3.93A14.77,14.77,0,0,1,363.48,60Z"/><path class="cls-1" d="M357.46,40.8a15.11,15.11,0,0,1,5,7.68,17.6,17.6,0,0,1,.38,3.14c0,.3,0,.61,0,.91a18,18,0,0,0-1.54,4.68,14.27,14.27,0,0,1-4.41-7.32,19.87,19.87,0,0,1-.29-3.27A18,18,0,0,1,357.46,40.8Z"/><path class="cls-1" d="M355.78,54.36h-.44a18.29,18.29,0,0,0-9.73-.59,17.23,17.23,0,0,1-5.18-3.91,15.39,15.39,0,0,1,8.83-.65,13.47,13.47,0,0,1,5.61,2.94A21.11,21.11,0,0,0,355.78,54.36Z"/><path class="cls-1" d="M346.43,32.61a13.85,13.85,0,0,1,7.85,10.19,21.64,21.64,0,0,0-.41,4.89,16.35,16.35,0,0,1-6.26-6.12,15.4,15.4,0,0,1-1.47-6.65A17.78,17.78,0,0,1,346.43,32.61Z"/><path class="cls-1" d="M343.11,38.48l.91.82a16.91,16.91,0,0,0,1.24,3.38,17.74,17.74,0,0,0,2.14,3.16,15.32,15.32,0,0,1-7.76-2.62,15.93,15.93,0,0,1-5.11-7.47A14.76,14.76,0,0,1,343.11,38.48Z"/><path class="cls-1" d="M302.36,104.08a3.37,3.37,0,0,1,3.24,3.41,3,3,0,0,1-.39,1.38c-.29.61-.5,1.32.79,1.32h4.62V51.88a58.69,58.69,0,0,1,5.21-26.69l1.33-2.59,1.31,2.59a61.39,61.39,0,0,1,5,26.69v58.31h4.57c1.31,0,1.07-.71.78-1.32a3.37,3.37,0,0,1-.36-1.38,3.46,3.46,0,0,1,3.44-3.41h0a3.52,3.52,0,0,1,3.45,3.52c0,2.41-1.85,4.88-6.16,4.88h-7.59a32.45,32.45,0,0,1,1.73,11.09,32,32,0,0,1-2.49,13.18,41.7,41.7,0,0,0,14-4.5l.38-.24,1.06,2.5-.29.17a43.34,43.34,0,0,1-11.56,3.91l-5.24,1a2.91,2.91,0,0,1,.92,2.24h0a2.94,2.94,0,0,1-2.94,2.93H317a2.94,2.94,0,0,1-2.23-5.32l-5.62-1a42.4,42.4,0,0,1-11.14-3.9l-.29-.17,1.08-2.52.36.24a42.6,42.6,0,0,0,14.26,4.56,28.25,28.25,0,0,1-2.73-13.23,32.08,32.08,0,0,1,1.73-11.08h-7.58c-4.07,0-5.88-2.53-5.88-4.88A3.55,3.55,0,0,1,302.36,104.08Z"/><path class="cls-1" d="M290.39,124.07a1.69,1.69,0,0,1,0,.45,11,11,0,0,0-1.88-.66,12.09,12.09,0,0,1-3.38-5.35,14.81,14.81,0,0,1-.73-4.53,18.68,18.68,0,0,1,.83-4,19.23,19.23,0,0,1,4.11,4.7A17.32,17.32,0,0,0,290.39,124.07Z"/><path class="cls-1" d="M282.37,61.42A17.74,17.74,0,0,0,273,64.35h-.36a15.54,15.54,0,0,0,.41-2.14A13.38,13.38,0,0,1,277.78,58a15.21,15.21,0,0,1,8.52-1.5A14.87,14.87,0,0,1,282.37,61.42Z"/><path class="cls-1" d="M282,116.89a2.28,2.28,0,0,1-.18.35c-.58-.4-1.19-.79-1.82-1.14a13.3,13.3,0,0,1-2.21-5.88v-1.14a15.18,15.18,0,0,1,2.12-7.24,14.64,14.64,0,0,1,3.17,5.65A17.09,17.09,0,0,0,282,116.89Z"/><path class="cls-1" d="M272.69,100.2a14.83,14.83,0,0,1,4.09-7.68,14.45,14.45,0,0,1,1.71,6.09,18.49,18.49,0,0,0-3.35,9.09l-.26.38c-.48-.57-1-1.07-1.48-1.57a13.57,13.57,0,0,1-.85-4.38A15.52,15.52,0,0,1,272.69,100.2Z"/><path class="cls-1" d="M270.69,97.25l-.35.27c-.32-.67-.72-1.32-1.12-2a3.39,3.39,0,0,1,0-.78A13.44,13.44,0,0,1,276,83a19.32,19.32,0,0,1,.55,3.29,13.33,13.33,0,0,1-.34,2.94A19.37,19.37,0,0,0,270.69,97.25Z"/><path class="cls-1" d="M272.78,67.61a14.3,14.3,0,0,1,8.09-3.23,16,16,0,0,1-2.94,5.68,19,19,0,0,0-8.35,4.79,1.93,1.93,0,0,0-.48,0v-2A12.11,12.11,0,0,1,272.78,67.61Z"/><path class="cls-1" d="M270.17,78.32a15.46,15.46,0,0,1,7.2-5,14.09,14.09,0,0,1-1.44,6.31,18.94,18.94,0,0,0-7.09,6.56l-.38.17a17.35,17.35,0,0,0-.58-2.11A12.36,12.36,0,0,1,270.17,78.32Z"/><path class="cls-1" d="M269.38,103.72a16.94,16.94,0,0,0-4.12-1.38,13.31,13.31,0,0,1-3.44-2.76,15.14,15.14,0,0,1-3.41-8.39,15.83,15.83,0,0,1,7.9,4.45A16.72,16.72,0,0,1,269.38,103.72Z"/><path class="cls-1" d="M270.26,107.28a15.39,15.39,0,0,1,5.14,7,17.54,17.54,0,0,0-4.79-.39,13.44,13.44,0,0,1-3.65-1.78,15.26,15.26,0,0,1-5.24-7.59A14.79,14.79,0,0,1,270.26,107.28Z"/><path class="cls-1" d="M277.11,117.57a16,16,0,0,1,6.62,5.59,17.58,17.58,0,0,0-4.62.7,12.75,12.75,0,0,1-4.27-1,14,14,0,0,1-6.76-5.89A15.31,15.31,0,0,1,277.11,117.57Z"/><path class="cls-1" d="M285.92,126a15.56,15.56,0,0,1,8,4.23,15.76,15.76,0,0,1-8.83,1.53,15.07,15.07,0,0,1-8-4.2A15.27,15.27,0,0,1,285.92,126Z"/><path class="cls-1" d="M293.84,125a14.2,14.2,0,0,1-2.14-7.63v-.82a15.51,15.51,0,0,1,6.93,5.47,14.78,14.78,0,0,1,2.18,7.85v.68A14,14,0,0,1,293.84,125Z"/><path class="cls-1" d="M288.87,42.68a17.45,17.45,0,0,0,1.21-3.38c.29-.26.62-.55,1-.82a15.43,15.43,0,0,1,8.82-2.71,15,15,0,0,1-5.38,7.47,15.39,15.39,0,0,1-7.76,2.62,18.76,18.76,0,0,0,2.15-3.14Z"/><path class="cls-1" d="M281.35,39a15.39,15.39,0,0,1,6.33-6.38,13.09,13.09,0,0,1-1.22,8.82,14.09,14.09,0,0,1-5.89,6.12,17.71,17.71,0,0,0-.41-4.88A14,14,0,0,1,281.35,39Z"/><path class="cls-1" d="M279.43,52.36a13.32,13.32,0,0,1,5.61-3,14.72,14.72,0,0,1,8.61.66,17.16,17.16,0,0,1-5,3.81,17.62,17.62,0,0,0-9.49.6h-.42A17.74,17.74,0,0,0,279.43,52.36Z"/><path class="cls-1" d="M271.72,48.48a14.77,14.77,0,0,1,4.92-7.68,16.29,16.29,0,0,1,1.23,5.89,12.37,12.37,0,0,1-.38,3.26A15.39,15.39,0,0,1,273,57.26a18.6,18.6,0,0,0-1.56-4.67v-.9A15,15,0,0,1,271.72,48.48Z"/><path class="cls-1" d="M264.88,60a16.32,16.32,0,0,1,2.79-8.56,16.09,16.09,0,0,1,2.94,8.51A15.68,15.68,0,0,1,268,68.06a15.64,15.64,0,0,0-2.3-4,12.26,12.26,0,0,1-.79-4.19Z"/><path class="cls-1" d="M261.44,63.8a15.68,15.68,0,0,1,5,7.64,14,14,0,0,1,.42,3.47,15.7,15.7,0,0,1-1.07,5.24,15.21,15.21,0,0,0-3.37-3.33,12.77,12.77,0,0,1-1.77-3.93,13.65,13.65,0,0,1-.44-3.42A16.68,16.68,0,0,1,261.44,63.8Z"/><path class="cls-1" d="M258.27,77.27a15,15,0,0,1,6.66,6.31,14.46,14.46,0,0,1,1.65,6.85,5.72,5.72,0,0,1-.17,1.68,17.31,17.31,0,0,0-4.12-2.5,14.12,14.12,0,0,1-2.62-3.44A13.8,13.8,0,0,1,258,79.34,12.12,12.12,0,0,1,258.27,77.27Z"/><path d="M320.77,51.88a59.87,59.87,0,0,0-3.61-22v76.76h3.61Z"/><path class="cls-1" d="M176.31,114.67a59.79,59.79,0,0,0,19.06,2.72V36.84a63.92,63.92,0,0,1-20-3,58.14,58.14,0,0,0-15.76-2.49A18.68,18.68,0,0,0,147,35.54v79.94a23.71,23.71,0,0,1,12.47-3.38A61.58,61.58,0,0,1,176.31,114.67Z"/><path class="cls-1" d="M130.81,112.05a23.18,23.18,0,0,1,12.43,3.4V35.6a18.22,18.22,0,0,0-12.59-4.15A58,58,0,0,0,114.9,34,63.6,63.6,0,0,1,95,36.89v80.56a59.61,59.61,0,0,0,19-2.73A61,61,0,0,1,130.81,112.05Z"/><path class="cls-1" d="M207.45,38.51h-7l.44,1.79a1.32,1.32,0,0,1,0,.56v82.92h-51.4c-.94,1.58-2.05,1.84-4.4,1.84s-3.16-.26-4.06-1.84H89.32V40.86a1.94,1.94,0,0,1,0-.59l.43-1.76h-7v91.67h55.39a7.57,7.57,0,0,0,6.78,4,7.71,7.71,0,0,0,7-4h55.48Z"/><path d="M159.47,50.81a28.42,28.42,0,0,0-7.76,1.26v4.11a23.94,23.94,0,0,1,7.91-1.47,61.26,61.26,0,0,1,15.67,2.62,83.13,83.13,0,0,0,15,2.93v-3.9a79.76,79.76,0,0,1-14-2.94A63.72,63.72,0,0,0,159.47,50.81Z"/><path d="M159.47,97.54a29.59,29.59,0,0,0-7.76,1.24v4.16a22.21,22.21,0,0,1,7.91-1.45A58.18,58.18,0,0,1,175.29,104a81.47,81.47,0,0,0,15,2.95V103.2a73.74,73.74,0,0,1-14-2.78A64.73,64.73,0,0,0,159.47,97.54Z"/><path d="M159.47,88.17a30.43,30.43,0,0,0-7.76,1.23v4.15a22.67,22.67,0,0,1,7.91-1.46,61.72,61.72,0,0,1,15.73,2.57,81,81,0,0,0,14.93,3V93.73a82.5,82.5,0,0,1-14-2.8A60.92,60.92,0,0,0,159.47,88.17Z"/><path d="M159.47,60.16a28.76,28.76,0,0,0-7.76,1.22V65.5A24.72,24.72,0,0,1,159.62,64a59.82,59.82,0,0,1,15.64,2.61,83.47,83.47,0,0,0,15,2.94V65.8A80.08,80.08,0,0,1,176.23,63,59.77,59.77,0,0,0,159.47,60.16Z"/><path d="M159.47,78.91A26.88,26.88,0,0,0,151.71,80v4.11a22.24,22.24,0,0,1,7.87-1.35,58.85,58.85,0,0,1,15.65,2.59,87.3,87.3,0,0,0,15.05,2.79V84.41a83.44,83.44,0,0,1-14.11-2.77A61.86,61.86,0,0,0,159.47,78.91Z"/><path d="M176.28,44.18a63.36,63.36,0,0,0-16.81-2.65,30,30,0,0,0-7.76,1.15v4.15a23.44,23.44,0,0,1,7.91-1.47A58.26,58.26,0,0,1,175.29,48a76.61,76.61,0,0,0,15,2.94V47A76.15,76.15,0,0,1,176.28,44.18Z"/><path d="M114,91a89.07,89.07,0,0,1-14.09,2.76v3.79A85.68,85.68,0,0,0,115,94.58,59.46,59.46,0,0,1,130.65,92a22.06,22.06,0,0,1,7.95,1.48V89.31a30.8,30.8,0,0,0-7.79-1.23A60.23,60.23,0,0,0,114,91Z"/><path d="M114.13,81.64a89.28,89.28,0,0,1-14.2,2.94v3.73a90.48,90.48,0,0,0,15.14-2.79,58.54,58.54,0,0,1,15.58-2.59,22,22,0,0,1,7.95,1.38V80.2a27.46,27.46,0,0,0-7.79-1.15A61.62,61.62,0,0,0,114.13,81.64Z"/><path d="M159.47,69.49a30.89,30.89,0,0,0-7.76,1.24v4.12a25.07,25.07,0,0,1,7.91-1.44,57.6,57.6,0,0,1,15.73,2.65,90.21,90.21,0,0,0,14.93,2.76V75.06a78.88,78.88,0,0,1-14-3A62.13,62.13,0,0,0,159.47,69.49Z"/><path d="M114,100.32a78.42,78.42,0,0,1-14.11,2.76v3.79A85.68,85.68,0,0,0,115,103.93a57.41,57.41,0,0,1,15.66-2.53,22.26,22.26,0,0,1,7.95,1.42V98.7a29.47,29.47,0,0,0-7.79-1.24A62.85,62.85,0,0,0,114,100.32Z"/><path d="M114,44.18a76.05,76.05,0,0,1-14.09,2.94v3.69a78.41,78.41,0,0,0,15.2-3,57.5,57.5,0,0,1,15.68-2.59,23.59,23.59,0,0,1,7.93,1.47V42.63A27.79,27.79,0,0,0,131,41.46,61.24,61.24,0,0,0,114,44.18Z"/><path d="M114,53.57A82.6,82.6,0,0,1,99.93,56.5v3.8A83,83,0,0,0,115,57.36a59.5,59.5,0,0,1,15.66-2.62,23.66,23.66,0,0,1,7.95,1.47V52.09a29.49,29.49,0,0,0-7.79-1.26A62.91,62.91,0,0,0,114,53.57Z"/><path d="M114,72.27A82.6,82.6,0,0,1,99.93,75.2v3.74A87.55,87.55,0,0,0,115,76.17a57.5,57.5,0,0,1,15.66-2.61A24.54,24.54,0,0,1,138.6,75V70.91a29.54,29.54,0,0,0-7.74-1.26A60.94,60.94,0,0,0,114,72.27Z"/><path d="M114.13,62.92a82.68,82.68,0,0,1-14.2,2.76v3.79a83.88,83.88,0,0,0,15.14-2.94,58.49,58.49,0,0,1,15.58-2.61,26.25,26.25,0,0,1,7.95,1.43v-4a29.08,29.08,0,0,0-7.74-1.22A58.72,58.72,0,0,0,114.13,62.92Z"/><path class="cls-1" d="M185.87,323.5l-.17,11.82L176.38,328l-9.59,7.29-.24-11.82-11.42-2.94L164.2,313l-4.85-10.85,11.58,2.42L176.38,294l5.17,10.59,11.82-2.42L188.32,313l9.08,7.53Z"/><path class="cls-1" d="M250.64,407l-11.76-4.43-5.23,11.52-5.12-11.52L216.63,407l4.43-11.85-11.4-5.4,11.4-5.17-4.43-12,11.9,4.46,5.12-11.61L238.88,377l11.76-4.46-4.26,12,11.32,5.24-11.32,5.33Z"/><path class="cls-1" d="M216.3,248l11.76,2.47,5.21-10.61,5.44,10.61L250.38,248l-4.91,10.78,9.09,7.66-11.5,2.85-.23,11.9-9.56-7.26L224,281.19l-.21-11.9-11.49-2.85,9.11-7.66Z"/><path class="cls-1" d="M263.34,344.05l-9.26-4.59-9,4.59,1.67-10.14-7.31-7.21,10.11-1.61,4.52-9.06,4.76,9.06,10,1.61-7.05,7.21Z"/><path class="cls-1" d="M300.77,306.79l-10.55-.14-5,9.06-5.12-9.06-10.56.14,5.44-9-5.44-9,10.56.19,5.12-9.12,5,9.12,10.55-.19-5.41,9Z"/><path class="cls-1" d="M233.27,196.11,364.1,313.48a295.77,295.77,0,0,0,19.65-47.61L233.27,130.63,83.09,265.87a286,286,0,0,0,19.63,47.61Z"/><path class="cls-1" d="M436.22,353.07l7.06-43.68-20.22-18.18a180,180,0,0,0,5.88-17.32c6.08,5.48,26.46,23.82,29.4,26.48A386,386,0,0,1,436.22,353.07Z"/><path class="cls-1" d="M426.44,367.66c-2-1.79-4.79-4.33-8-7.14v-.15c4.59-7.85,9-15.82,12.82-24.14Z"/><path class="cls-1" d="M8.52,300.3c3-2.59,23.53-21,29.41-26.46,1.85,6,3.88,11.76,5.87,17.26L23.51,309.32l7,43.58A382,382,0,0,1,8.52,300.3Z"/><path class="cls-1" d="M40.24,367.66l-4.81-31.52c3.85,8.32,8.26,16.38,12.94,24.31Z"/><path class="cls-1" d="M406.74,366.3c-37.52,59.75-90.41,103.45-153.1,126.44l-20.37,7.4c-2-.84-20.11-7.43-20.11-7.43C150.51,469.77,97.58,426.09,60,366.28a339.15,339.15,0,0,1-27.46-55c3.24-2.93,22.73-20.58,28.53-25.69a311.2,311.2,0,0,0,29.39,61.74c33.28,52.93,79.82,91.7,135,111.87l7.88,3,8.11-3C296.63,439,343.23,400.42,376.33,347.34a304.82,304.82,0,0,0,29.41-61.74c5.59,5.18,25.22,22.81,28.52,25.69A343.76,343.76,0,0,1,406.74,366.3Z"/><path d="M72.07,346.64l5.87-6.58-.5-2c-1.15-1.08-2.26-2.23-3.3-3.42-6.14,1.12-15.87,2.65-20.22,2.94l-1.15-1.29-1.14.65c.62,1,1.14,2,1.7,2.93s1.23,2.45,1.88,3.66l1.11-.69-.5-1.76,6.42-1.47,3.43,5.88a51.19,51.19,0,0,1-4.61,4.82l-1.26-1.47-1.2.71c.84,1.47,1.74,2.93,2.58,4.43s1.59,2.95,2.35,4.35l1.24-.69-.59-1.76C65.39,354.38,69.24,349.87,72.07,346.64ZM65,339.14l8.19-1.7-5.66,6.26Z"/><path d="M101.29,377.42l1.11-.84c-.76-1-1.59-2-2.32-2.95s-1.48-2.09-2.17-3.14l-1.21.81.88,1.83c-2.93,2.45-10.71,8.23-10.71,8.23L93.17,364c-.73-1-1.44-1.86-2.14-2.95s-1.24-1.91-1.86-2.93l-1.09.81.79,1.83a43,43,0,0,1-4.67,3.64l-5.14,3.71A52.44,52.44,0,0,1,74,371.28l-1.44-1.41-1.08.79c.76,1,1.5,2,2.26,3.11s1.38,2.09,2.14,3.15L77,376.1l-.88-1.85C79,371.8,83.53,368.63,87,366c-2.23,5.88-4.3,11.76-6.59,17.65a23.65,23.65,0,0,1,1.55,2,12.65,12.65,0,0,1,1.31,1.91c1.67-1.36,3.88-3,6.37-4.88l5-3.62c1.88-1.33,3.45-2.33,5.07-3.26Z"/><path d="M102.67,394.5a10.73,10.73,0,0,0-.5,15.62,14.7,14.7,0,0,0,10.64,5.12l.38-2.57a9.6,9.6,0,0,1-6.24-2.94,7.75,7.75,0,0,1,.48-11.46,6.78,6.78,0,0,1,10.18.27,11.33,11.33,0,0,1,2.47,4.9l-1.16,1.36,1,1.17a15.32,15.32,0,0,1,4.62-2.7,20.78,20.78,0,0,0-4.28-6.65C115.13,390.88,107.73,389.77,102.67,394.5Z"/><path d="M144.71,419.7c-5.88-5.05-12.82-4.24-16.87.59-4.47,5.52-3.42,11.75,2.5,16.7s12.9,4.23,16.82-.62C151.89,430.9,150.8,424.67,144.71,419.7Zm-2,12.91c-2.94,3.59-7.26,4.67-10.47,2.05s-2.93-7,.18-10.55,7.29-4.73,10.47-2.06S145.59,429,142.74,432.61Z"/><path d="M175.85,442.46c-1.26-.8-2.62-1.59-3.92-2.35s-2.67-1.53-3.93-2.33-2.18-1.44-3.26-2.15l-.78,1.21,1.52,1.39a53.4,53.4,0,0,1-2.95,5.2l-2.95,5.32c-1.23,1.85-2.28,3.35-3.46,4.85l-1.89-.74-.72,1.21,4.34,2.62c1.42.85,2.8,1.83,4.09,2.73l.71-1.18-1.36-1.34a32.84,32.84,0,0,1,3-5.27l1.08-1.67,1.38.88c.35,3.23.68,8.68.92,12.56a52.1,52.1,0,0,1,5.88,3.17l.76-1.18-.62-.85c-.35-1.5-1.38-9.26-1.71-11.41a5.92,5.92,0,0,0,7.66-1.82C180.9,448.81,180.94,445.7,175.85,442.46Zm-1.54,5.88c-1.38,2.14-3.52,2.05-6.17.41a10,10,0,0,1-1.59-1.17l.95-1.53a38.62,38.62,0,0,1,2.5-3.66,17.65,17.65,0,0,1,2.64,1.42C174.88,445.2,175.35,446.69,174.31,448.34Z"/><path d="M207.83,459.48l-1.61-1.32a43.38,43.38,0,0,1-4.67-.8A202,202,0,0,1,187,471.77l-1.79-.38-.56,1.29c1.09.47,2.2.88,3.26,1.38l3.77,1.76.62-1.26-1.54-1.08,4.3-5,6.19,2.95a58.77,58.77,0,0,1-.84,6.59l-1.89-.45L198,478.8l4.78,2.06,4.45,2.12.56-1.27-1.47-1.11c0-2,.29-7.89.7-12.18Zm-6.31,9.23-4.8-2.17,5.62-6.26Z"/><path d="M269.9,476.27a43.82,43.82,0,0,1-2.52-5.38l-2.47-5.68c-.82-1.81-1.55-3.67-2.19-5.55l1.71-1.14-.59-1.3c-1.58.73-3.11,1.47-4.64,2.09s-3.12,1.28-4.71,2l.59,1.24,2-.45c.91,1.62,1.74,3.27,2.69,5.38l2.49,5.71c.94,2.06,1.58,3.76,2.2,5.54l-1.67,1.14.55,1.26c1.59-.71,3.09-1.44,4.54-2.11s2.93-1.27,4.62-1.91l-.6-1.3Z"/><path d="M309,455a56.91,56.91,0,0,1-3.34-5l-2.94-5.38a52.09,52.09,0,0,1-3-5.19l1.56-1.36-.76-1.24c-1.26.86-2.54,1.67-3.82,2.41l-3.94,2.24c.73,2.94,2.94,13.56,3.34,15.82-2.43-1.69-10.28-8.42-12.28-10.38l-3.8,2.36-3.93,2.17.73,1.17,1.77-.58,1.55,2.52c1.47,2.53,6.18,10.88,7.32,13.23L286,469.16l.71,1.17,3.24-2c1.11-.67,2.26-1.29,3.4-1.91l-.73-1.21-1.91.74a46.58,46.58,0,0,1-3.35-5L285.63,458c-1.47-2.65-2.56-4.53-3.09-5.47,7.85,6.65,12.18,10.12,14.3,12l2.93-1.73L296,444.39c.61.88,1.8,2.78,3.39,5.42l1.84,2.93a34.08,34.08,0,0,1,2.68,5.33l-1.3,1.29.62,1.23c1.27-.88,2.71-1.76,4.21-2.66s2.94-1.69,4.44-2.57l-.71-1.17Z"/><path d="M330.08,439.4c-1.29-1.39-2.52-2.74-4-4.53l-2.93-3.5c-1.21-1.44-2.57-3.4-3.66-5a11.8,11.8,0,0,1,1.68-1.92,3.71,3.71,0,0,1,5.7.24,3.58,3.58,0,0,1,1.23,2.72,3.64,3.64,0,0,1-1.52,3,8.7,8.7,0,0,1-1.41.91l1.05,2.67a16.83,16.83,0,0,0,2.76-1.85c4.69-3.73,4.8-8.44,2.24-11.58s-5.88-3.21-9.69,0a33.59,33.59,0,0,1-3.18,2.79,45.12,45.12,0,0,1-3.59,2.94c-1,.74-2.24,1.7-3.56,2.79l.91,1.09,1.76-1c1.33,1.33,2.57,2.71,4,4.44l3.7,4.86c1.47,1.78,2.56,3.26,3.61,4.78l-1.31,1.55.85,1.12c1.32-1.14,2.58-2.22,3.94-3.29s2.64-2,4.68-3.59l-.95-1.07Z"/><path d="M364.63,407.15a110.81,110.81,0,0,1-11.17-4.76l-8.14-3.89-1.77,1.09c-.74,1.3-1.46,2.68-2.38,4.11,2.94,5.65,7.23,14.38,8.82,18.65l-1,1.46,1,1c.76-.82,1.56-1.74,2.42-2.53s2-2,2.93-2.95l-1-1-1.55,1.09-3.27-5.71,4.91-5a59.7,59.7,0,0,1,5.88,2.94l-1,1.62,1,1,3.52-3.8L367.4,407l-1-1Zm-16.37,4.2-4-7.43,7.7,3.69Z"/><path d="M388.89,377.15c-1.47.19-9.47.5-11.75.6a5.92,5.92,0,0,0-1.16-7.86c-2.15-1.76-5.26-2.05-9,2.74-.91,1.24-1.86,2.5-2.74,3.73L361.55,380l-2.47,2.94,1.14.83,1.5-1.36c1.62,1,3.12,2,5,3.45l5,3.76a47.57,47.57,0,0,1,4.45,3.85l-1,1.82,1.17.82c1-1.35,2-2.73,2.95-4.09s2.12-2.59,3.17-3.94l-1.15-.82-1.47,1.32a55.48,55.48,0,0,1-5-3.38l-1.38-1.24.91-1.31c3.18,0,8.82.14,12.68.29a42.7,42.7,0,0,1,3.71-5.53l-1.12-.82Zm-16.17,3.69a13.82,13.82,0,0,1-1.36,1.4l-1.43-1.05c-1.45-1.06-2.68-2.12-3.45-2.73a24.82,24.82,0,0,1,1.65-2.48c1.59-2.06,3.18-2.44,4.68-1.23S374.52,378.42,372.72,380.84Z"/><path d="M402,338.94c-6.35-3.71-12.11-1.65-16.11,5.11s-2.05,13.38,3.38,16.56c6,3.64,12.09,1.62,16.11-5.16S407.5,341.87,402,338.94Zm.64,15c-2.07,3.56-6.4,4-10.35,1.52s-5.87-6.31-3.76-9.87,6.3-3.88,10.39-1.53,5.88,6.24,3.72,9.73Z"/><path d="M233.27,473.53a4.8,4.8,0,0,0-4.59,4.79,4.9,4.9,0,0,0,4.59,5,5,5,0,0,0,5-5A5,5,0,0,0,233.27,473.53Z"/><path d="M55.1,321.29a4.91,4.91,0,0,0,4.81-4.79,4.79,4.79,0,1,0-9.58,0A4.87,4.87,0,0,0,55.1,321.29Z"/><path d="M412.47,321.29a4.92,4.92,0,0,0,4.88-4.79v0a4.82,4.82,0,1,0-4.88,4.81Z"/><path class="cls-2" d="M2335.59,1.82l33.58,105,33.59-105h20.86V130.5h-16.18V80.39l1.51-50.2L2375.27,130.5H2362.9l-33.5-100,1.51,49.85V130.5h-16.18V1.82Z"/><path class="cls-2" d="M2531.53,77.47q0,26.34-11.22,40.57t-31.91,14.23q-19.89,0-31.42-13.83t-12-39.11V55.11q0-25.8,11.4-40.43T2488.22.05q20.34,0,31.69,14t11.62,40Zm-16.17-22.53q0-20.41-6.68-30.36t-20.46-9.94q-13.33,0-20.19,10.07t-6.94,29.7V77.47q0,19.71,6.85,30.05t20.46,10.34q13.6,0,20.15-9.54t6.81-29.26Z"/><path class="cls-2" d="M2637,130.5h-16.26l-51.53-99.16V130.5h-16.26V1.82h16.26l51.7,99.6V1.82H2637Z"/><path class="cls-2" d="M2723,96.83h-43.49l-10,33.67h-16.62L2694.33,1.82h13.88l41.53,128.68h-16.61ZM2683.73,83h35.08l-17.59-58.5Z"/><path class="cls-2" d="M2819.83,98q0-9.65-5.21-14.76t-18.83-10Q2782.18,68.37,2775,63a36.07,36.07,0,0,1-10.78-12.19,33.36,33.36,0,0,1-3.58-15.69q0-15.29,10.2-25.19t26.74-9.9a40,40,0,0,1,20.15,5.05,34.48,34.48,0,0,1,13.61,14.05,41.64,41.64,0,0,1,4.77,19.79h-16.26q0-11.92-5.74-18.47t-16.53-6.54q-9.81,0-15.2,5.49T2777,34.82a18,18,0,0,0,5.83,13.64q5.84,5.49,18,9.82,19,6.28,27.18,15.48t8.17,24q0,15.65-10.16,25t-27.66,9.42a44.5,44.5,0,0,1-20.73-4.91,37.15,37.15,0,0,1-14.94-13.78,38.32,38.32,0,0,1-5.43-20.38h16.26q0,11.94,6.67,18.56t18.17,6.63q10.68,0,16.08-5.48T2819.83,98Z"/><path class="cls-2" d="M2938,130.5h-16.26V71H2870V130.5h-16.18V1.82H2870V57.15h51.79V1.82H2938Z"/><path d="M2314.73,316.13V187.45h30.67q22.54,0,35,14.09t12.46,39.64v21.57q0,25.53-12.64,39.46t-36.68,13.92Zm16.18-114.81V302.25h13q17.05,0,24.92-9.77t8-29V240.69q0-20.35-7.82-29.86t-23.64-9.51Z"/><path d="M2470.64,283.6q0-9.63-5.22-14.76t-18.82-10Q2433,254,2425.78,248.65a36.11,36.11,0,0,1-10.78-12.2,33.41,33.41,0,0,1-3.58-15.68q0-15.3,10.21-25.19t26.74-9.9a39.88,39.88,0,0,1,20.15,5,34.55,34.55,0,0,1,13.61,14.05,41.61,41.61,0,0,1,4.77,19.79h-16.26q0-11.94-5.75-18.47t-16.52-6.54q-9.82,0-15.21,5.49t-5.39,15.4a18,18,0,0,0,5.84,13.63q5.82,5.49,18,9.83,19,6.28,27.17,15.48t8.18,24q0,15.65-10.17,25.05t-27.66,9.42a44.49,44.49,0,0,1-20.72-4.91,37,37,0,0,1-14.94-13.79,38.26,38.26,0,0,1-5.44-20.37h16.27q0,11.94,6.67,18.56t18.16,6.63q10.7,0,16.09-5.48T2470.64,283.6Z"/><path d="M2564.59,282.46h-43.48l-10,33.67H2494.5L2536,187.45h13.88l41.54,128.68h-16.62Zm-39.24-13.88h35.08l-17.58-58.51Z"/><path d="M2622.12,316.13H2606V187.45h16.17Z"/><path d="M2679.93,281.57a33.54,33.54,0,0,1,4.38-16.83q4.36-7.74,16.74-18-7.25-10.16-9.94-16.75a34.13,34.13,0,0,1-2.69-13q0-14.76,7.55-23t20.29-8.26q11.65,0,19.17,7.78T2743,212.9a32.9,32.9,0,0,1-3,14q-3,6.45-10.6,13.08l-9.11,7.78,22.63,32.61a64,64,0,0,0,4.15-23.68h14q0,22.26-9,36.76l15.73,22.63H2749l-6.54-9.46a36.16,36.16,0,0,1-12.2,8.22,38,38,0,0,1-14.85,3q-16.17,0-25.8-10.08T2679.93,281.57Zm35.44,23q10.35,0,19-9.72l-25.54-37.21-2.65,2.21q-10.69,10.17-10.69,21.74,0,10.26,5.3,16.62T2715.37,304.55ZM2704,216.44a22.87,22.87,0,0,0,2.39,9.81,84.1,84.1,0,0,0,6.18,10.69l6.81-5.83q5.39-4.34,7.33-8.35a22.48,22.48,0,0,0,2-9.86,14.22,14.22,0,0,0-3.54-9.81,11.42,11.42,0,0,0-8.92-4,10.15,10.15,0,0,0-9,4.95A22.24,22.24,0,0,0,2704,216.44Z"/><path d="M2314.73,501.76V373.08h30.67q22.54,0,35,14.09t12.46,39.64v21.56q0,25.54-12.64,39.47t-36.68,13.92ZM2330.91,387V487.88h13q17.05,0,24.92-9.77t8-29V426.31q0-20.34-7.82-29.85T2345.4,387Z"/><path d="M2474.08,444.93H2430.6v56.83h-16.17V373.08h67V387H2430.6v44.1h43.48Z"/><path d="M2514.65,501.76h-16.17V373.08h16.17Z"/><line class="cls-3" x1="2108.35" x2="2108.35" y2="507.87"/></g></g></svg>