<svg xmlns="http://www.w3.org/2000/svg" viewBox="0 0 768 198"><defs><style>.cls-1{fill:#028fbf;}.cls-2{fill:#004660;}.cls-3{fill:#005c7d;}.cls-4{fill:#00b4f1;}.cls-5{fill:#8dbdd4;}.cls-6{fill:#fff;}</style></defs><g id="Layer_2" data-name="Layer 2"><g id="SIGMM_Logo" data-name="SIGMM Logo"><path class="cls-1" d="M14.22,0H85.33a0,0,0,0,1,0,0V66a0,0,0,0,1,0,0H0a0,0,0,0,1,0,0V14.22A14.22,14.22,0,0,1,14.22,0Z"/><rect class="cls-2" x="85.33" width="85.33" height="66"/><rect class="cls-3" x="170.67" width="85.33" height="66"/><rect class="cls-4" x="256" width="85.33" height="66"/><rect class="cls-5" x="341.33" width="85.33" height="66"/><rect class="cls-3" x="426.67" width="85.33" height="66"/><rect class="cls-1" x="512" width="85.33" height="66"/><rect class="cls-2" x="597.33" width="85.33" height="66"/><path class="cls-3" d="M682.67,0h71.11A14.22,14.22,0,0,1,768,14.22V66a0,0,0,0,1,0,0H682.67a0,0,0,0,1,0,0V0A0,0,0,0,1,682.67,0Z"/><rect class="cls-4" y="66" width="85.33" height="66"/><rect class="cls-5" x="85.33" y="66" width="85.33" height="66"/><rect class="cls-4" x="170.67" y="66" width="85.33" height="66"/><rect class="cls-1" x="256" y="66" width="85.33" height="66"/><rect class="cls-2" x="341.33" y="66" width="85.33" height="66"/><rect class="cls-3" x="426.67" y="66" width="85.33" height="66"/><rect class="cls-4" x="512" y="66" width="85.33" height="66"/><rect class="cls-5" x="597.33" y="66" width="85.33" height="66"/><rect class="cls-1" x="682.67" y="66" width="85.33" height="66"/><path class="cls-2" d="M0,132H85.33a0,0,0,0,1,0,0v66a0,0,0,0,1,0,0H14.22A14.22,14.22,0,0,1,0,183.78V132A0,0,0,0,1,0,132Z"/><rect class="cls-3" x="85.33" y="132" width="85.33" height="66"/><rect class="cls-5" x="170.67" y="132" width="85.33" height="66"/><rect class="cls-1" x="256" y="132" width="85.33" height="66"/><rect class="cls-3" x="341.33" y="132" width="85.33" height="66"/><rect class="cls-1" x="426.67" y="132" width="85.33" height="66"/><rect class="cls-5" x="512" y="132" width="85.33" height="66"/><rect class="cls-4" x="597.33" y="132" width="85.33" height="66"/><path class="cls-2" d="M682.67,132H768a0,0,0,0,1,0,0v51.78A14.22,14.22,0,0,1,753.78,198H682.67a0,0,0,0,1,0,0V132A0,0,0,0,1,682.67,132Z"/><polygon class="cls-6" points="28.44 28.44 170.67 28.44 170.67 56.89 56.89 56.89 56.89 84.78 170.67 84.78 170.67 169.56 28.44 169.56 28.44 141.11 142.22 141.11 142.22 113.22 28.44 113.22 28.44 28.44"/><rect class="cls-6" x="199.11" y="28.44" width="28.44" height="141.11"/><polygon class="cls-6" points="256 28.44 397.84 28.44 397.84 56.89 284.44 56.89 284.44 141.11 369.78 141.11 369.78 113.22 312.89 113.22 312.89 84.78 397.84 84.78 398.22 169.56 256 169.56 256 28.44"/><polygon class="cls-6" points="426.67 28.44 426.67 169.56 455.11 169.56 455.11 56.89 483.56 56.89 483.56 169.56 512 169.56 512 56.89 540.44 56.89 540.44 169.56 568.89 169.56 568.89 28.44 426.67 28.44"/><polygon class="cls-6" points="597.33 28.44 597.33 169.56 625.78 169.56 625.78 56.89 654.22 56.89 654.22 169.56 682.67 169.56 682.67 56.89 711.11 56.89 711.11 169.56 739.56 169.56 739.56 28.44 597.33 28.44"/></g></g></svg>